<?xml version="1.0" standalone="no"?>
  <!DOCTYPE svg PUBLIC "-//W3C//DTD SVG 1.1//EN" "http://www.w3.org/Graphics/SVG/1.1/DTD/svg11.dtd" >
  <svg>
  <metadata>
  Created by font-carrier
  </metadata>
  <defs>
  <font id="SquealerEmbossed" horiz-adv-x="2495" vert-adv-y="2495" >
    <font-face
      
      font-family="Squealer Embossed"
      
      font-weight="400"
      
      font-stretch="normal"
      
      units-per-em="1000"
      
      ascent="1271"
      
      descent="-387"
      
    />
      <missing-glyph />

      

      
      <glyph glyph-name="uni21" unicode="&#x21;" d="M6 128L80 201L79 202L80 203L80 796L351 1067L351 382L272 303L444 127L225-92L6 128M266 417L266 862L165 761L165 317L266 417M100 229L145 282L145 760L100 777L100 229M325 128L227 229L126 128L225 28L325 128M154 778L267 891L331 999L331 1019L107 795L154 778M98 128L225 254L225 315L42 136L98 128M242 247L343 138L405 138L242 303L242 247Z"  horiz-adv-x="426" vert-adv-y="1000"  />

      
      <glyph glyph-name="uni22" unicode="&#x22;" d="M455 1012L455 587L64 587L49 1012L455 1012M358 672L358 927L297 927L297 672L358 672M198 672L198 927L137 927L146 672L198 672M83 607L91 607L83 614L126 664L117 925L70 974L83 607M277 937L249 964L249 631L277 658L277 937M124 947L200 947L237 992L80 992L124 947M295 947L362 947L417 992L262 992L295 947Z"  horiz-adv-x="481" vert-adv-y="1000"  />

      
      <glyph glyph-name="uni23" unicode="&#x23;" d="M154 265L154 268L35 268L35 648L154 648L154 717L382 945L382 755L572 945L572 648L663 648L663 268L572 268L572 264L637 198L457 18L362 113L267 18L87 199L154 265M120 353L239 353L239 231L207 199L267 138L328 199L297 231L297 353L429 353L429 231L397 199L457 138L518 199L487 231L487 353L578 353L578 389L487 389L487 524L578 524L578 563L487 563L487 740L429 682L429 563L297 563L297 740L239 682L239 563L120 563L120 524L239 524L239 389L120 389L120 353M429 524L429 389L297 389L297 524L429 524M225 696L300 771L342 877L181 716L225 696M409 690L488 769L534 879L379 724L379 718L414 699L409 690M100 515L100 569L55 609L55 481L100 515M100 398L55 436L55 303L100 351L100 398M117 583L204 583L155 628L65 628L117 583M70 449L118 409L205 409L170 449L70 449M174 637L219 596L219 677L174 698L174 637M409 239L409 319L373 283L373 203L409 239M522 583L582 583L628 628L561 628L522 583M520 409L578 409L628 454L557 454L559 452L520 409M379 694L379 628L376 628L409 596L409 690L404 681L379 694M189 209L211 231L171 254L126 210L189 210L189 209M516 230L537 208L599 208L564 243L516 230M174 276L219 251L219 320L174 281L174 276M374 457L409 420L409 493L374 457M188 461L219 425L219 490L188 461M361 615L334 583L394 583L361 615M361 441L335 409L392 409L361 441Z"  horiz-adv-x="678" vert-adv-y="1000"  />

      
      <glyph glyph-name="uni24" unicode="&#x24;" d="M6 255L77 326L51 326L51 606L204 760L204 914L412 914L412 785L608 590L559 541L559 204L412 58L412-65L204-65L204 58L6 255M327 20L327 93L474 239L474 456L222 456L222 657L136 571L136 411L394 411L394 289L317 212L200 329L126 255L289 93L289 20L327 20M423 525L488 590L327 750L327 829L289 829L289 725L256 692L423 525M399 770L353 752L506 600L570 600L399 770M77 605L120 588L116 579L261 725L218 746L77 605M71 357L116 407L116 579L112 570L71 586L71 357M43 264L106 264L106 263L191 348L191 391L170 391L43 264M211 346L307 250L307 314L230 391L211 391L211 346M303 521L256 476L458 476L418 496L303 520L303 521M224 765L269 744L269 841L224 884L224 765M290 849L336 849L378 894L242 894L290 849M224-31L269 10L269 74L224 53L224-31M332 331L332 330L374 308L374 384L332 331M327 309L327 250L366 289L327 309Z"  horiz-adv-x="591" vert-adv-y="1000"  />

      
      <glyph glyph-name="uni25" unicode="&#x25;" d="M544 483L558 497L732 322L732 88L552-92L385 75L385 176L274-65L46-65L307 507L212 412L45 579L45 828L218 1001L392 826L392 806L393 806L393 694L521 976L751 976L510 451L542 485L544 483M82-32L155 17L556 897L529 944L82-32M619 891L575 891L178 20L220 20L619 891M547 78L508 118L508 327L470 289L470 110L552 28L647 123L647 287L558 377L528 347L610 264L610 141L547 78M207 582L168 622L168 831L130 793L130 614L212 532L307 627L307 791L218 881L188 851L270 768L270 645L207 582M450 112L450 297L549 396L549 460L495 406L405 310L405 95L450 112M65 599L110 617L110 792L65 807L65 599M227 900L318 808L364 825L227 964L227 900M569 394L657 305L707 319L569 458L569 394M70 825L118 809L209 900L207 900L207 962L70 825M572 911L626 911L705 956L546 956L572 911Z"  horiz-adv-x="754" vert-adv-y="1000"  />

      
      <glyph glyph-name="uni26" unicode="&#x26;" d="M370 590L590 810L590 590L817 590L590 361L590 200L298-92L47 158L47 743L308 1003L538 773L355 590L370 590M339 694L418 773L308 883L132 708L132 193L298 28L505 235L505 396L613 505L505 505L505 605L405 505L233 505L233 804L339 694M233 408L404 408L404 281L290 166L233 222L233 408M67 177L112 197L112 706L67 727L67 177M76 744L120 724L297 900L297 964L76 744M317 902L435 784L499 784L317 966L317 902M404 532L501 629L552 744L384 576L404 532M539 525L632 525L748 570L583 570L539 525M267 525L386 525L365 570L311 570L267 525M339 308L314 282L302 206L379 284L336 299L339 308M339 308L342 317L384 302L384 375L339 332L339 308M281 202L290 259L261 224L253 230L281 202Z"  horiz-adv-x="726" vert-adv-y="1000"  />

      
      <glyph glyph-name="uni27" unicode="&#x27;" d="M293 1012L293 587L62 587L47 1012L293 1012M196 672L196 927L135 927L135 672L196 672M68 977L80 625L115 669L115 933L68 977M130 947L198 947L255 992L82 992L130 947Z"  horiz-adv-x="317" vert-adv-y="1000"  />

      
      <glyph glyph-name="uni28" unicode="&#x28;" d="M266 1L378-110L227-257L50-80L50 971L235 1155L380 1010L266 896L266 1M235 1035L135 936L135-45L228-138L257-110L181-34L181 931L260 1010L235 1035M114-41L115-43L115 932L70 951L70-61L114-41M227 1055L225 1117L76 969L122 951L227 1055M208-33L276-100L340-100L251-12L208-33M245 1116L247 1051L276 1022L340 1022L245 1116Z"  horiz-adv-x="357" vert-adv-y="1000"  />

      
      <glyph glyph-name="uni29" unicode="&#x29;" d="M115 895L3 1006L154 1153L331 976L331-75L146-259L1-114L115 0L115 895M146-139L246-40L246 941L153 1034L123 1006L200 930L200-35L121-114L146-139M135 4L180-17L180 911L135 891L135 4M161 1054L257 957L303 975L161 1118L161 1054M100-107L171-35L128-14L39-104L100-104L100-107M105 1016L141 1050L141 1112L41 1016L105 1016Z"  horiz-adv-x="358" vert-adv-y="1000"  />

      
      <glyph glyph-name="uni2a" unicode="&#x2a;" d="M29-35L137 279L3 279L227 795L521 795L431 551L597 551L137-90L29-35M431 466L309 466L399 710L282 710L131 364L258 364L165 95L431 466M39 314L108 360L264 719L236 766L39 314M128 50L224 327L161 285L62 0L128 50M282 730L408 730L474 775L254 775L282 730M357 486L445 486L527 531L419 531L357 486Z"  horiz-adv-x="532" vert-adv-y="1000"  />

      
      <glyph glyph-name="uni2b" unicode="&#x2b;" d="M491 222L194 222L194 381L32 381L32 658L194 658L194 826L491 826L491 658L650 658L650 381L491 381L491 222M565 573L406 573L406 741L279 741L279 573L117 573L117 466L279 466L279 307L406 307L406 466L565 466L565 573M270 761L408 761L453 806L225 806L270 761M97 462L97 578L52 623L52 417L97 462M214 651L259 606L259 744L214 789L214 651M110 593L244 593L199 638L65 638L110 593M259 300L259 432L214 390L214 255L259 300M440 593L570 593L615 638L485 638L440 593Z"  horiz-adv-x="657" vert-adv-y="1000"  />

      
      <glyph glyph-name="uni2c" unicode="&#x2c;" d="M16-55L109 37L19 128L241 349L457 127L153-177L16-55M149-60L338 128L240 229L139 128L230 37L140-52L149-60M57 138L119 138L119 136L231 247L231 311L57 138M251 246L354 140L416 140L251 310L251 246M117-47L192 27L127 27L55-44L117-44L117-47Z"  horiz-adv-x="452" vert-adv-y="1000"  />

      
      <glyph glyph-name="uni2d" unicode="&#x2d;" d="M54 323L54 590L527 590L527 323L54 323M442 408L442 505L139 505L139 408L442 408M134 525L448 525L493 570L89 570L134 525M74 359L119 404L119 512L74 557L74 359Z"  horiz-adv-x="557" vert-adv-y="1000"  />

      
      <glyph glyph-name="uni2e" unicode="&#x2e;" d="M3 128L225 349L441 127L222-92L3 128M322 128L224 229L123 128L222 28L322 128M43 140L107 140L215 247L215 311L43 140M235 246L340 138L402 138L235 310L235 246Z"  horiz-adv-x="421" vert-adv-y="1000"  />

      
      <glyph glyph-name="uni2f" unicode="&#x2f;" d="M-4-65L357 976L583 976L221-65L-4-65M31-26L94 18L399 898L366 941L31-26M462 891L418 891L116 20L159 20L462 891M415 911L470 911L537 956L380 956L415 911Z"  horiz-adv-x="554" vert-adv-y="1000"  />

      
      <glyph glyph-name="uni30" unicode="&#x30;" d="M44 158L44 743L305 1003L570 738L570 182L295-92L44 158M295 28L485 217L485 703L305 883L129 708L129 193L295 28M287 166L230 222L230 803L384 648L384 264L287 166M64 179L109 197L109 708L64 726L64 179M319 300L364 282L364 629L319 608L319 300M315 901L498 717L543 736L315 965L315 901M72 743L118 725L295 901L295 965L72 743M299 207L356 264L313 281L299 207M278 202L287 255L257 223L278 202Z"  horiz-adv-x="588" vert-adv-y="1000"  />

      
      <glyph glyph-name="uni31" unicode="&#x31;" d="M96 128L180 212L180 505L-3 684L315 1002L451 865L451 212L535 128L315-92L96 128M315 28L415 128L366 177L366 830L315 882L117 684L187 615L265 694L265 177L216 128L315 28M200 215L245 195L245 615L200 512L200 215M99 694L307 902L305 902L305 964L35 694L99 694M323 902L378 846L422 866L325 964L325 902L323 902M436 198L391 179L433 138L497 138L436 198M134 138L198 138L237 177L193 197L134 138Z"  horiz-adv-x="521" vert-adv-y="1000"  />

      
      <glyph glyph-name="uni32" unicode="&#x32;" d="M37 158L37 381L191 534L10 716L298 1003L567 732L567 539L298 269L347 219L567 219L567-65L261-65L37 158M122 193L296 20L482 20L482 134L312 134L178 269L482 574L482 697L396 783L396 619L122 346L122 193M361 818L298 883L130 716L195 651L361 818M109 361L368 619L324 639L63 379L109 361M307 902L492 714L539 731L307 966L307 902M112 726L287 900L287 964L48 726L112 726M330 154L490 154L533 199L347 199L330 154M102 197L102 343L57 360L57 176L102 197M216 259L312 161L330 208L280 259L216 259M376 638L376 777L331 660L331 657L376 638Z"  horiz-adv-x="586" vert-adv-y="1000"  />

      
      <glyph glyph-name="uni33" unicode="&#x33;" d="M9 209L155 353L-58 570L142 570L5 705L301 1003L562 743L562 158L311-92L9 209M129 209L311 28L477 193L477 708L301 883L125 705L203 628L376 804L376 485L144 485L240 388L376 388L376 222L319 166L204 282L129 209M108 716L291 901L291 965L44 716L108 716M311 901L488 724L532 745L311 965L311 901M16 550L122 505L338 505L293 550L16 550M195 301L195 350L177 347L48 220L112 220L195 301M311 560L356 515L356 732L311 623L311 560M215 299L306 207L291 286L263 313L215 342L215 299M311 293L356 244L356 354L311 308L311 293M317 257L327 202L349 223L317 257M291 595L265 570L291 570L291 595Z"  horiz-adv-x="582" vert-adv-y="1000"  />

      
      <glyph glyph-name="uni34" unicode="&#x34;" d="M685 128L465-92L246 128L280 162L123 162L23 364L300 975L563 975L696 842L601 751L601 430L831 430L607 206L685 128M516 345L516 787L574 843L528 890L354 890L117 366L176 247L415 247L415 177L366 128L465 28L565 128L516 177L516 235L626 345L516 345M221 345L380 717L415 710L415 345L221 345M50 376L100 376L338 901L334 899L308 943L50 376M351 910L525 910L544 955L325 955L351 910M99 356L49 356L129 195L158 237L99 356M395 384L395 651L350 432L350 429L395 384M548 365L642 365L756 410L601 410L548 365M543 902L590 856L654 856L562 947L543 902M265 365L386 365L341 410L332 410L265 365M546 174L580 140L645 140L594 191L546 174M348 138L380 170L304 158L284 138L348 138M395 193L395 226L327 182L395 193Z"  horiz-adv-x="749" vert-adv-y="1000"  />

      
      <glyph glyph-name="uni35" unicode="&#x35;" d="M17 209L137 328L44 424L44 976L662 976L376 690L369 690L570 489L570 158L319-92L17 209M137 209L319 28L485 193L485 454L309 630L217 538L217 775L341 775L457 891L129 891L129 459L212 374L384 550L384 222L327 166L212 282L137 209M64 446L104 468L109 459L109 897L64 942L64 446M123 911L476 911L586 956L78 956L123 911M324 642L498 468L542 488L351 680L324 642M200 358L55 218L114 218L114 214L202 300L201 300L201 357L200 358M319 295L364 248L364 475L319 368L319 295M221 301L311 209L298 286L267 318L221 343L221 301M334 200L358 224L323 262L334 200M260 609L297 646L285 676L260 609M313 661L336 694L299 694L313 661M299 341L286 328L299 314L299 341Z"  horiz-adv-x="586" vert-adv-y="1000"  />

      
      <glyph glyph-name="uni36" unicode="&#x36;" d="M571 412L575 408L575 175L304-91L45 164L45 749L296 999L598 698L441 542L572 413L571 412M225 105L304 28L490 210L490 373L231 633L231 685L288 741L403 625L478 698L296 879L130 714L130 199L224 107L224 508L404 328L404 283L225 105M65 180L110 204L110 709L65 731L65 180M305 898L494 710L558 710L305 962L305 898M257 635L501 389L547 407L296 643L257 635M73 749L118 730L285 896L285 960L73 749M262 170L373 280L316 292L262 170M350 304L384 298L384 318L350 304Z"  horiz-adv-x="586" vert-adv-y="1000"  />

      
      <glyph glyph-name="uni37" unicode="&#x37;" d="M61-21L276 595L242 561L22 782L242 1002L316 928L685 928L360-21L61-21M299 64L565 843L281 843L242 882L142 782L242 681L285 724L411 724L180 64L299 64M159 65L378 689L316 647L95 16L159 66L159 65M315 908L298 863L575 863L639 908L315 908M60 792L124 792L233 901L233 965L60 792M280 871L298 917L253 963L253 899L280 871Z"  horiz-adv-x="682" vert-adv-y="1000"  />

      
      <glyph glyph-name="uni38" unicode="&#x38;" d="M568 379L568 128L374-65L253-65L42 146L42 377L118 452L42 529L42 743L303 1003L572 732L572 529L494 452L568 379M221 801L127 708L127 564L239 452L127 342L127 181L288 20L339 20L483 163L483 344L401 425L221 605L221 801M487 564L487 697L303 883L222 802L401 623L401 479L487 564M317 125L228 212L228 306L303 381L393 290L393 201L317 125M309 905L499 713L544 731L309 969L309 905M69 742L115 724L289 897L289 961L69 742M62 164L107 182L107 343L62 359L62 164M62 548L107 565L107 706L62 724L62 548M69 376L117 360L201 442L136 442L69 376M476 442L412 442L496 358L540 378L476 442M283 621L246 608L369 484L333 579L283 621M321 221L321 157L365 201L325 225L321 221M295 231L254 214L301 168L301 227L295 231M328 247L373 221L373 271L328 256L328 247M353 581L381 509L381 601L353 581Z"  horiz-adv-x="589" vert-adv-y="1000"  />

      
      <glyph glyph-name="uni39" unicode="&#x39;" d="M13 209L171 366L36 499L36 732L307 998L566 743L566 158L315-92L13 209M385 801L307 879L121 697L121 534L380 274L380 222L323 166L208 282L133 209L315 28L481 193L481 708L387 800L387 399L207 579L207 624L385 801M66 734L110 714L295 895L295 958L66 734M315 899L492 725L538 742L315 962L315 899M56 515L101 536L101 696L56 717L56 515M322 576L367 472L367 731L322 621L322 576M50 218L110 218L110 214L197 299L181 347L50 218M348 466L300 577L294 583L241 573L348 466M300 250L204 344L219 299L308 209L300 250M319 234L330 201L353 223L319 234M339 249L360 242L360 255L339 249Z"  horiz-adv-x="586" vert-adv-y="1000"  />

      
      <glyph glyph-name="uni3a" unicode="&#x3a;" d="M5 128L195 317L8 505L230 726L446 504L259 317L443 127L224-92L5 128M324 128L226 229L125 128L224 28L324 128M327 505L229 606L128 505L227 405L327 505M43 138L107 138L215 245L215 309L43 138M47 516L111 516L217 621L217 685L47 516M235 248L340 140L402 140L235 313L235 248M237 627L341 519L341 520L402 520L237 691L237 627Z"  horiz-adv-x="427" vert-adv-y="1000"  />

      
      <glyph glyph-name="uni3b" unicode="&#x3b;" d="M6-55L99 37L9 128L199 317L12 505L23 516L234 726L450 504L263 317L447 127L143-177L6-55M139-60L328 128L230 229L129 128L220 37L130-52L139-60M331 505L233 606L132 505L231 405L331 505M51 516L115 516L225 625L225 689L51 516M49 140L113 140L219 245L219 309L49 140M239 248L344 140L406 140L239 313L239 248M245 622L348 516L410 516L245 686L245 622M47-42L110-42L110-44L183 28L118 28L47-42Z"  horiz-adv-x="426" vert-adv-y="1000"  />

      
      <glyph glyph-name="uni3c" unicode="&#x3c;" d="M375 659L375 419L290 370L375 321L375 78L25 280L25 459L375 659M290 224L290 273L122 370L290 467L290 514L110 410L110 328L290 224M98 426L293 538L342 618L55 453L98 426M178 360L299 290L343 316L268 360L178 360M45 303L90 328L90 409L45 438L45 303Z"  horiz-adv-x="396" vert-adv-y="1000"  />

      
      <glyph glyph-name="uni3d" unicode="&#x3d;" d="M54 233L54 680L527 680L527 233L54 233M442 318L442 385L139 385L139 318L442 318M442 528L442 595L139 595L139 528L442 528M85 660L132 615L440 615L489 660L85 660M141 405L444 405L487 450L91 450L141 405M74 266L119 308L119 396L74 438L74 266M74 482L119 523L119 600L74 643L74 482Z"  horiz-adv-x="541" vert-adv-y="1000"  />

      
      <glyph glyph-name="uni3e" unicode="&#x3e;" d="M54 79L54 319L138 368L54 417L54 660L404 458L404 279L54 79M139 224L319 327L319 410L139 513L139 465L307 368L139 271L139 224M136 538L331 425L375 452L89 617L136 538M83 313L127 287L250 358L160 358L83 313M74 439L119 462L119 526L74 602L74 439M74 130L119 209L119 268L74 295L74 130Z"  horiz-adv-x="405" vert-adv-y="1000"  />

      
      <glyph glyph-name="uni3f" unicode="&#x3f;" d="M48 128L220 299L224 303L156 372L156 505L186 535L5 716L293 1003L562 732L562 539L414 390L414 201L486 127L267-92L48 128M477 697L391 783L391 619L241 470L241 432L329 350L329 425L477 574L477 697M356 818L293 883L125 716L190 651L356 818M367 128L269 229L168 128L267 28L367 128M301 903L489 713L534 731L301 967L301 903M109 728L281 899L281 963L45 728L109 728M183 504L227 484L363 619L318 639L183 504M90 142L154 142L255 242L255 308L251 304L252 303L234 285L90 142M275 252L383 140L445 140L275 310L275 252M326 657L371 637L371 779L326 668L326 657M176 392L221 435L221 465L176 486L176 392Z"  horiz-adv-x="568" vert-adv-y="1000"  />

      
      <glyph glyph-name="uni40" unicode="&#x40;" d="M480 526L480 360Q480 332 491 317.50Q502 303 529 303Q557 303 581 337.50Q605 372 605 435Q605 495 591.50 545.50Q578 596 548.50 633Q519 670 471.50 691Q424 712 356 712Q303 712 256.50 693.50Q210 675 175.50 638Q141 601 121.50 546.50Q102 492 102 419Q102 346 118 291.50Q134 237 164 198.50Q194 160 236 137.50Q278 115 330 107L321 30Q247 41 191.50 75Q136 109 99 160.50Q62 212 44 278.50Q26 345 26 420Q26 506 53.50 574Q81 642 127 689Q173 736 232.50 760.50Q292 785 356 785Q510 785 594.50 701Q679 617 679 440Q679 415 674 381Q669 347 653 316Q637 285 607 263Q577 241 528 241Q453 241 427 297Q408 282 387.50 276Q367 270 344 270Q319 270 297 278Q275 286 258.50 302Q242 318 232 341.50Q222 365 222 395Q222 459 253.50 493Q285 527 343 527Q366 527 384.50 519.50Q403 512 418 505L423 526L480 526M418 438Q406 452 390.50 457.50Q375 463 355 463Q283 463 283 395Q283 364 299 347.50Q315 331 350 331Q394 331 418 361L418 438Z"  horiz-adv-x="712" vert-adv-y="1000"  />

      
      <glyph glyph-name="uni41" unicode="&#x41;" d="M360 40L228-93L8 128L92 212L92 728L368 1002L627 743L627 212L711 128L492-91L360 40M278 429L278 793L177 693L177 177L128 128L227 28L327 128L278 177L278 322L441 322L441 177L392 128L491 28L591 128L542 177L542 708L368 882L283 798L441 640L441 429L278 429M112 214L157 195L157 690L112 709L112 214M119 727L164 708L359 901L359 965L119 727M379 899L556 721L600 742L379 963L379 899M376 509L421 464L421 621L376 602L376 509M106 134L149 177L104 196L42 134L106 134M569 177L609 138L673 138L612 199L569 177M421 195L421 288L376 248L376 215L421 195M357 494L312 449L408 449L363 494L357 494M365 129L413 177L369 197L365 193L365 129M345 138L345 194L305 177L345 138Z"  horiz-adv-x="694" vert-adv-y="1000"  />

      
      <glyph glyph-name="uni42" unicode="&#x42;" d="M609 377L609 128L415-65L188-65L-4 127L83 213L83 743L344 1003L613 732L613 529L535 451L609 377M528 697L344 883L263 802L450 616L262 429L262 801L168 708L168 178L116 127L223 20L380 20L524 163L524 342L415 452L528 564L528 697M269 80L269 305L344 381L434 289L434 245L269 80M103 215L148 195L148 704L103 724L103 215M351 904L541 712L588 729L351 968L351 904M155 723L331 898L331 962L110 742L155 723M451 444L536 357L581 376L514 444L451 444M302 497L412 606L349 606L302 497M99 138L139 178L95 197L35 138L99 138M348 251L313 152L408 250L355 258L348 251Z"  horiz-adv-x="630" vert-adv-y="1000"  />

      
      <glyph glyph-name="uni43" unicode="&#x43;" d="M313 594L313 315L400 402L595 209L293-92L42 158L42 743L303 1003L599 705L401 506L313 594M401 626L479 705L303 883L127 708L127 193L293 28L475 209L400 282L284 167L228 222L228 799L401 626M62 180L107 198L107 702L62 721L62 180M315 899L496 716L560 716L315 963L315 899M112 721L295 903L295 967L67 740L112 721M407 303L492 220L556 220L407 367L407 303M297 208L387 297L387 361L315 290L297 208M275 203L290 269L249 228L275 203Z"  horiz-adv-x="567" vert-adv-y="1000"  />

      
      <glyph glyph-name="uni44" unicode="&#x44;" d="M186-65L10 115L96 200L96 709L8 797L185 974L426 974L631 769L631 138L428-65L186-65M220 20L393 20L546 173L546 734L391 889L220 889L128 797L181 744L181 165L129 113L220 20M282 76L282 829L445 665L445 239L282 76M161 184L161 724L116 707L116 206L161 184M380 279L425 260L425 645L380 622L380 279M406 902L558 750L603 768L426 946L406 902M222 909L387 909L407 954L203 954L222 909M111 808L204 901L185 946L47 808L111 808M367 253L316 138L419 241L374 260L367 253M113 126L153 165L111 187L49 126L113 126Z"  horiz-adv-x="648" vert-adv-y="1000"  />

      
      <glyph glyph-name="uni45" unicode="&#x45;" d="M616 590L415 387L595 209L293-92L42 158L42 743L303 1003L586 720L587 720L587 719L599 707L482 590L616 590M400 628L479 707L303 883L127 708L127 193L293 28L475 209L400 282L285 166L228 222L228 408L316 408L412 505L228 505L228 804L400 628M62 177L107 197L107 706L62 727L62 177M311 903L494 720L558 720L311 967L311 903M115 724L291 899L291 963L71 744L115 724M261 525L426 525L537 570L303 570L261 525M409 301L492 220L556 220L409 365L409 301M299 208L389 299L389 363L312 285L299 208M277 201L287 260L252 225L277 201Z"  horiz-adv-x="567" vert-adv-y="1000"  />

      
      <glyph glyph-name="uni46" unicode="&#x46;" d="M364 323L363 322L363 212L447 128L227-92L8 128L92 212L92 743L353 1003L649 705L531 590L663 590L398 323L364 323M363 408L459 505L278 505L278 804L450 628L529 705L353 883L177 708L177 177L128 128L227 28L327 128L278 177L278 408L363 408M112 215L157 196L157 707L112 728L112 215M362 902L548 714L612 714L363 965L363 902L362 902M165 724L344 902L343 902L343 965L122 745L165 724M309 525L479 525L582 568L355 568L309 525M108 136L149 177L104 196L44 136L108 136M304 178L343 140L407 140L349 197L304 178Z"  horiz-adv-x="617" vert-adv-y="1000"  />

      
      <glyph glyph-name="uni47" unicode="&#x47;" d="M42 158L42 743L303 1003L599 705L399 508L313 595L313 376L570 633L570 185L293-92L42 158M400 628L479 705L303 883L127 708L127 193L293 28L485 220L485 428L384 327L384 265L285 166L228 222L228 804L400 628M107 201L107 706L62 725L62 178L107 201M313 901L494 718L558 718L313 965L313 901M70 743L115 724L293 901L293 965L70 743M370 341L487 458L529 564L330 365L370 341M364 283L364 321L319 347L319 301L364 283M298 207L356 265L312 282L298 207M276 202L287 258L253 224L276 202Z"  horiz-adv-x="589" vert-adv-y="1000"  />

      
      <glyph glyph-name="uni48" unicode="&#x48;" d="M362 43L227-92L8 128L92 212L92 796L363 1067L363 797L633 1067L633 212L717 128L497-92L362 43M497 28L597 128L548 177L548 862L447 761L447 505L278 505L278 862L177 761L177 177L128 128L227 28L327 128L278 177L278 408L447 408L447 177L398 128L497 28M112 216L157 196L157 757L112 777L112 216M436 778L549 891L598 1004L390 796L436 778M163 775L273 885L329 1005L119 795L163 775M382 587L427 542L427 760L382 778L382 587M427 196L427 376L382 331L382 217L427 196M44 136L108 136L150 178L106 198L44 136M620 197L575 178L615 138L679 138L620 197M355 570L310 525L416 525L371 570L355 570M382 140L419 177L376 198L371 193L371 140L382 140M343 140L351 140L351 196L348 199L304 179L343 140Z"  horiz-adv-x="700" vert-adv-y="1000"  />

      
      <glyph glyph-name="uni49" unicode="&#x49;" d="M8 128L92 212L92 796L363 1067L363 212L447 128L227-92L8 128M227 28L327 128L278 177L278 862L177 761L177 177L128 128L227 28M112 214L157 198L157 760L112 782L112 214M165 777L282 894L328 1004L123 799L165 777M350 196L304 178L345 138L409 138L350 196M48 140L110 140L110 138L151 179L105 197L48 140Z"  horiz-adv-x="430" vert-adv-y="1000"  />

      
      <glyph glyph-name="uni4a" unicode="&#x4a;" d="M-7 209L188 402L275 314L275 1067L546 798L546 158L295-92L-7 209M113 209L295 28L461 193L461 763L360 863L360 222L303 166L188 282L113 209M295 298L340 246L340 883L295 989L295 298M356 894L472 780L517 798L310 1004L356 894M96 220L179 301L179 365L32 220L96 220M199 299L290 207L276 285L199 363L199 299M340 230L332 223L301 258L312 202L340 230Z"  horiz-adv-x="563" vert-adv-y="1000"  />

      
      <glyph glyph-name="uni4b" unicode="&#x4b;" d="M359 40L227-92L8 128L92 212L92 796L363 1067L363 804L627 1067L627 1038L628 1038L627 1036L627 696L496 564L627 433L627 212L711 128L491-92L359 40M491 28L591 128L542 177L542 398L376 564L542 731L542 862L278 599L278 862L177 761L177 177L128 128L227 28L327 128L278 177L278 506L441 344L441 177L392 128L491 28M112 215L157 195L157 763L112 780L112 215M314 663L536 884L590 1002L367 780L314 663M168 780L277 889L330 1006L121 797L168 780M414 554L553 415L601 431L478 554L414 554M376 214L421 195L421 326L376 309L376 214M566 180L609 138L673 138L613 198L566 180M112 140L149 177L105 197L48 140L112 140M347 136L349 136L349 198L348 199L304 178L347 136M372 136L413 177L369 196L369 136L372 136Z"  horiz-adv-x="694" vert-adv-y="1000"  />

      
      <glyph glyph-name="uni4c" unicode="&#x4c;" d="M42 158L42 798L313 1067L313 314L400 402L595 209L293-92L42 158M228 863L127 763L127 193L293 28L475 209L400 282L285 166L228 222L228 863M62 178L107 203L107 759L62 778L62 178M114 778L223 886L276 1002L69 797L114 778M407 367L407 303L492 220L556 220L407 367M320 293L299 208L387 297L387 361L320 293M293 268L293 269L249 228L276 202L293 268Z"  horiz-adv-x="563" vert-adv-y="1000"  />

      
      <glyph glyph-name="uni4d" unicode="&#x4d;" d="M623 40L491-92L359 40L227-92L8 128L92 212L92 728L368 1002L501 871L632 1002L891 743L891 212L975 128L756-92L623 40M491 28L591 128L542 177L542 792L501 751L368 882L283 798L441 640L441 177L399 135L401 132L392 128L491 28M756 28L855 128L806 177L806 708L632 882L547 797L705 640L705 177L656 128L756 28M278 793L177 693L177 177L128 128L227 28L327 128L278 177L278 793M112 218L157 197L157 693L112 712L112 218M640 217L685 198L685 624L640 606L640 217M376 221L421 202L421 621L376 604L376 221M357 899L357 963L121 729L166 710L357 899M641 901L818 723L863 742L641 965L641 901M377 965L377 901L491 789L491 853L377 965M511 789L621 899L621 963L511 853L511 789M625 627L629 623L675 641L577 740L625 627M367 622L413 639L310 743L367 622M46 138L110 138L150 178L106 198L46 138M876 198L831 180L871 140L935 140L876 198M390 154L418 182L373 201L370 198L390 154M635 197L650 150L679 179L635 197M355 183L337 146L343 140L375 140L355 183M596 151L608 197L569 177L596 151M322 161L340 199L299 183L322 161M622 169L614 138L633 138L622 169Z"  horiz-adv-x="958" vert-adv-y="1000"  />

      
      <glyph glyph-name="uni4e" unicode="&#x4e;" d="M359 40L227-92L8 128L92 212L92 728L368 1002L627 743L627 212L711 128L491-92L359 40M491 28L591 128L542 177L542 708L368 882L283 798L441 640L441 177L392 128L491 28M227 28L327 128L278 177L278 793L177 693L177 177L128 128L227 28M112 214L157 195L157 690L112 709L112 214M421 192L421 621L376 603L376 218L421 192M165 708L355 897L355 961L119 727L165 708M375 903L554 724L599 743L375 967L375 903M367 621L413 639L317 735L367 621M570 177L609 138L673 138L615 196L570 177M112 140L149 177L104 196L48 140L112 140M306 176L333 149L349 197L348 198L306 176M386 150L410 174L375 195L386 150M348 136L368 136L360 172L348 136Z"  horiz-adv-x="694" vert-adv-y="1000"  />

      
      <glyph glyph-name="uni4f" unicode="&#x4f;" d="M42 158L42 743L303 1003L568 738L568 182L293-92L42 158M293 28L483 217L483 703L303 883L127 708L127 193L293 28M285 166L228 222L228 803L382 648L382 264L285 166M62 176L107 197L107 701L62 722L62 176M362 272L362 628L317 605L317 300L362 272M311 903L494 719L540 738L311 967L311 903M111 720L292 900L291 900L291 963L68 741L111 720M298 207L349 258L313 281L298 207M276 202L287 260L255 223L276 202Z"  horiz-adv-x="585" vert-adv-y="1000"  />

      
      <glyph glyph-name="uni50" unicode="&#x50;" d="M367 212L451 128L231-92L12 128L96 212L96 709L8 797L185 974L428 974L626 777L626 580L367 321L367 212M541 742L393 889L220 889L128 797L181 744L181 177L132 128L231 28L331 128L282 177L282 356L541 615L541 742M275 480L275 854L463 667L275 480M116 216L161 198L161 724L116 707L116 216M407 902L553 757L598 776L428 945L407 902M221 909L388 909L411 954L203 954L221 909M109 806L203 900L185 946L45 806L109 806M343 639L310 543L428 660L364 660L343 639M360 680L422 680L314 787L360 680M50 138L114 138L155 179L109 197L50 138M354 197L309 178L349 138L413 138L354 197Z"  horiz-adv-x="629" vert-adv-y="1000"  />

      
      <glyph glyph-name="uni51" unicode="&#x51;" d="M537 49L344-144L42 158L42 743L303 1003L568 738L568 183L486 103L537 49M483 703L303 883L127 708L127 193L344-24L418 50L367 104L483 217L483 703M285 166L228 222L228 803L382 648L382 264L285 166M62 177L107 199L107 701L62 722L62 177M362 281L362 631L317 612L317 302L362 281M311 903L496 718L543 735L313 965L313 903L311 903M68 741L114 723L295 903L293 903L293 965L68 741M406 92L436 60L498 60L468 92L406 92M298 208L353 263L315 281L298 208M276 202L291 265L250 227L276 202Z"  horiz-adv-x="585" vert-adv-y="1000"  />

      
      <glyph glyph-name="uni52" unicode="&#x52;" d="M364 41L231-92L12 128L96 212L96 712L8 800L185 977L428 977L626 780L626 583L554 511L632 433L632 212L716 128L496-92L364 41M291 499L446 344L446 177L397 128L496 28L596 128L547 177L547 398L434 511L541 618L541 745L393 892L220 892L128 800L181 747L181 177L132 128L231 28L331 128L282 177L282 490L275 483L275 858L463 670L291 499M161 194L161 726L116 708L116 214L161 194M408 904L554 760L598 780L425 951L408 904M222 912L391 912L407 957L202 957L222 912M110 810L204 904L184 948L46 810L110 810M377 218L426 196L426 324L377 305L377 218M471 502L559 414L606 431L535 502L471 502M311 547L425 660L361 660L355 654L311 547M112 136L152 176L108 196L48 136L112 136M575 177L612 140L676 140L620 196L575 177M389 148L418 177L374 198L389 148M338 148L349 196L309 177L338 148M363 189L354 140L372 140L363 189Z"  horiz-adv-x="699" vert-adv-y="1000"  />

      
      <glyph glyph-name="uni53" unicode="&#x53;" d="M42 539L42 732L311 1003L599 716L417 534L572 381L572 158L321-92L19 209L195 385L42 539M139 209L321 28L487 193L487 346L213 619L213 784L127 697L127 574L431 269L329 166L213 283L139 209M414 651L479 716L311 883L247 818L414 651M240 619L499 361L544 380L286 637L240 619M116 714L301 901L301 965L69 731L116 714M321 901L497 726L561 726L321 965L321 901M56 218L120 218L201 299L201 363L56 218M62 558L107 578L107 697L62 714L62 558M221 361L221 303L319 204L319 266L221 361M339 256L339 204L392 258L341 258L339 256Z"  horiz-adv-x="589" vert-adv-y="1000"  />

      
      <glyph glyph-name="uni54" unicode="&#x54;" d="M443 704L443 212L527 128L307-92L88 128L172 212L172 704L-95 704L174 975L747 975L476 704L443 704M441 789L542 890L209 890L109 789L257 789L257 177L208 128L307 28L407 128L358 177L358 789L441 789M237 195L237 755L192 711L192 213L237 195M216 910L557 910L674 955L192 955L216 910M79 787L196 905L173 946L-24 747L79 787M188 136L229 177L183 195L124 136L188 136M385 178L425 138L489 138L430 197L385 178Z"  horiz-adv-x="567" vert-adv-y="1000"  />

      
      <glyph glyph-name="uni55" unicode="&#x55;" d="M359 870L492 1003L711 783L627 699L627 235L754 98L562-91L453 17L343-92L92 160L92 699L8 783L228 1003L359 870M327 783L228 883L128 783L177 734L177 195L343 28L453 137L562 29L635 100L542 200L542 734L591 783L492 883L392 783L441 734L441 271L334 164L278 221L278 734L327 783M112 180L157 197L157 715L112 697L112 180M376 308L421 289L421 716L376 699L376 308M503 964L503 900L610 792L674 792L503 964M217 900L217 964L47 794L111 794L217 900M369 852L369 796L377 796L483 902L483 966L369 852M237 966L237 902L342 796L349 796L349 852L237 966M612 221L568 202L653 110L715 110L612 221M346 204L413 271L368 290L359 281L346 204M325 201L334 256L302 225L325 201Z"  horiz-adv-x="708" vert-adv-y="1000"  />

      
      <glyph glyph-name="uni56" unicode="&#x56;" d="M627 182L351-92L92 167L92 698L8 782L228 1002L359 869L492 1002L711 782L627 698L627 182M351 28L436 112L278 270L278 733L327 782L228 882L128 782L177 733L177 202L351 28M492 882L392 782L441 733L441 117L542 217L542 733L591 782L492 882M112 185L157 204L157 715L112 699L112 185M376 302L421 198L421 714L376 693L376 302M501 901L611 790L675 790L501 965L501 901M46 792L110 792L218 900L218 964L46 792M238 900L343 794L351 794L351 849L238 964L238 900M376 794L481 899L481 963L371 853L371 794L376 794M305 270L416 160L367 272L348 291L305 270Z"  horiz-adv-x="694" vert-adv-y="1000"  />

      
      <glyph glyph-name="uni57" unicode="&#x57;" d="M92 698L8 782L227 1002L359 869L492 1002L623 869L756 1002L975 782L891 698L891 182L615-92L482 39L351-92L92 167L92 698M482 159L615 28L700 112L542 270L542 733L591 782L492 882L392 782L441 733L441 118L482 159M327 782L227 882L128 782L177 733L177 202L351 28L435 112L278 270L278 733L327 782M806 217L806 733L855 782L756 882L656 782L705 733L705 117L806 217M157 194L157 714L112 694L112 187L154 203L157 194M376 292L421 187L421 713L376 689L376 292M640 296L685 182L685 702L640 689L640 296M763 967L763 903L871 794L935 794L763 967M107 789L219 902L219 966L48 794L107 794L107 789M367 796L378 796L484 902L483 902L483 965L367 849L367 796M743 897L743 961L633 851L633 794L640 794L743 897M503 963L503 902L500 902L607 794L613 794L613 851L503 963M239 898L341 796L347 796L347 853L239 962L239 898M304 271L407 168L360 280L350 290L304 271M568 272L667 172L626 278L614 290L568 272Z"  horiz-adv-x="958" vert-adv-y="1000"  />

      
      <glyph glyph-name="uni58" unicode="&#x58;" d="M504 455L617 222L711 128L491-92L359 40L227-92L8 128L104 224L217 454L106 688L12 782L232 1002L363 869L496 1002L715 782L619 686L504 455M496 882L396 782L449 729L362 553L278 729L331 782L232 882L132 782L178 736L313 455L174 174L128 128L227 28L327 128L274 181L360 357L445 181L399 135L401 132L392 128L491 28L591 128L545 174L410 455L549 736L595 782L496 882M485 448L435 448L557 195L595 220L485 448M159 189L285 444L235 444L125 222L159 189M505 901L611 794L675 794L505 965L505 901M116 794L224 902L219 902L219 961L52 794L116 794M239 903L347 794L353 794L353 851L239 967L239 903M380 794L485 899L485 963L373 851L373 794L380 794M607 204L568 178L609 138L673 138L607 204M110 138L146 174L113 205L46 138L110 138M353 618L353 706L307 714L353 618M373 621L420 714L373 705L373 621M335 147L349 181L307 176L335 147M390 154L412 176L376 186L390 154Z"  horiz-adv-x="698" vert-adv-y="1000"  />

      
      <glyph glyph-name="uni59" unicode="&#x59;" d="M136 128L220 212L220 347L91 476L91 699L7 783L227 1003L358 870L491 1003L710 783L626 699L626 491L491 357L491 212L575 128L355-92L136 128M355 28L455 128L406 177L406 392L435 421L277 579L277 734L326 783L227 883L127 783L176 734L176 511L305 382L305 177L256 128L355 28M541 526L541 734L590 783L491 883L391 783L440 734L440 426L541 526M111 495L156 516L156 716L111 699L111 495M501 901L605 796L669 796L501 965L501 901M48 796L112 796L215 899L215 963L48 796M235 903L339 798L349 798L349 851L235 967L235 903M369 853L369 798L378 798L481 901L481 965L369 853M375 611L420 492L420 716L375 698L375 611M240 217L285 196L285 366L240 347L240 217M302 581L403 480L364 583L348 599L302 581M478 196L430 180L473 138L537 138L478 196M176 140L240 140L277 177L234 198L176 140Z"  horiz-adv-x="694" vert-adv-y="1000"  />

      
      <glyph glyph-name="uni5a" unicode="&#x5a;" d="M417-21L49-21L264 595L230 561L10 782L230 1002L304 928L675 928L434 293L489 348L709 128L489-93L417-21M489 27L589 128L489 228L456 195L306 195L552 843L269 843L230 882L130 782L230 681L273 724L399 724L168 64L452 64L489 27M83 17L145 60L366 691L304 648L83 17M287 863L560 863L560 864L628 908L306 908L287 863M108 788L219 899L219 963L48 792L108 792L108 788M501 308L501 246L499 246L607 138L671 138L501 308M239 901L269 870L288 915L239 965L239 901M438 269L455 222L481 248L481 312L438 269M417 260L352 215L437 215L420 260L417 260Z"  horiz-adv-x="694" vert-adv-y="1000"  />

      
      <glyph glyph-name="uni5b" unicode="&#x5b;" d="M266 1L378-110L227-257L50-80L50 971L235 1155L380 1010L266 896L266 1M235 1035L135 936L135-45L228-138L257-110L181-34L181 931L260 1010L235 1035M70-61L115-41L115 944L111 935L70 954L70-61M115 944L225 1053L225 1117L79 972L119 953L115 944M207-32L274-98L338-98L253-14L207-32M245 1053L276 1022L340 1022L245 1117L245 1053Z"  horiz-adv-x="357" vert-adv-y="1000"  />

      
      <glyph glyph-name="uni5c" unicode="&#x5c;" d="M222 976L583-65L358-65L-4 976L222 976M30 938L368-34L402 7L92 899L30 938M419 20L462 20L160 891L116 891L419 20M108 911L159 911L195 956L38 956L108 911Z"  horiz-adv-x="555" vert-adv-y="1000"  />

      
      <glyph glyph-name="uni5d" unicode="&#x5d;" d="M115 895L3 1006L154 1153L331 976L331-75L146-259L1-114L115 0L115 895M146-139L246-40L246 941L153 1034L123 1006L200 930L200-35L121-114L146-139M135 3L180-16L180 913L135 894L135 3M161 1054L258 957L302 976L161 1118L161 1054M39-104L101-104L101-106L172-34L128-15L39-104M103 1014L141 1050L141 1112L39 1014L103 1014Z"  horiz-adv-x="358" vert-adv-y="1000"  />

      
      <glyph glyph-name="uni5e" unicode="&#x5e;" d="M571 614L331 614L282 698L233 614L-10 614L2 635L192 964L371 964L571 614M379 699L426 699L322 879L240 879L136 699L185 699L282 867L379 699M35 653L112 697L225 893L198 936L35 653M291 812L291 722L336 644L362 689L291 812M244 899L319 899L348 944L216 944L244 899Z"  horiz-adv-x="538" vert-adv-y="1000"  />

      
      <glyph glyph-name="uni5f" unicode="&#x5f;" d="M445-8L-107-125L463 430L463 269L1031 386L445-184L445-8M764 243L378 164L378 230L162 19L530 98L530 16L764 243M-15-64L132 18L379 258L428 368L-15-64M414 192L783 268L928 344L461 248L414 192M510-3L510 58L465 1L465-112L510-3Z"  horiz-adv-x="900" vert-adv-y="1000"  />

      
      <glyph glyph-name="uni60" unicode="&#x60;" d="M455 988L233 988L-61 1218L266 1218L455 988M152 1133L13 1186L232 1014L248 1058L152 1133M36 1198L155 1153L221 1153L245 1198L36 1198M262 1073L275 1073L225 1133L185 1133L262 1073Z"  horiz-adv-x="425" vert-adv-y="1000"  />

      
      <glyph glyph-name="uni61" unicode="&#x61;" d="M293-92L42 158L42 568L303 829L568 564L568 236L705 100L512-91L403 17L293-92M512 29L585 100L483 201L483 529L303 709L127 533L127 193L293 28L403 137L512 29M284 165L228 221L228 629L382 474L382 264L284 165M62 176L107 198L107 527L62 546L62 176M67 565L112 546L293 727L293 791L67 565M313 727L495 545L540 563L313 791L313 727M317 305L362 282L362 457L317 432L317 305M559 217L508 203L605 108L669 108L559 217M311 285L295 205L354 264L311 285M274 202L288 275L249 227L274 202Z"  horiz-adv-x="638" vert-adv-y="1000"  />

      
      <glyph glyph-name="uni62" unicode="&#x62;" d="M42 158L42 796L313 1067L313 819L568 564L568 182L293-92L42 158M293 28L483 217L483 529L303 709L228 634L228 862L127 761L127 193L293 28M284 165L228 221L228 629L382 474L382 264L284 165M62 176L107 197L107 758L62 777L62 176M313 791L313 727L496 543L540 563L313 791M69 795L114 776L233 895L278 1004L69 795M317 303L362 282L362 454L317 433L317 303M310 283L296 205L354 264L311 284L310 283M275 202L286 264L251 226L275 202M293 727L293 765L265 699L293 727Z"  horiz-adv-x="585" vert-adv-y="1000"  />

      
      <glyph glyph-name="uni63" unicode="&#x63;" d="M595 209L293-92L42 158L42 569L303 829L599 531L433 368L595 209M400 454L479 531L303 709L127 534L127 193L293 28L475 209L400 282L285 166L228 222L228 630L400 454M62 178L107 199L107 531L62 550L62 178M313 727L496 542L560 542L313 791L313 727M115 550L293 727L293 791L70 569L115 550M411 299L494 218L558 218L416 357L411 357L411 299M298 207L391 301L391 357L383 357L313 286L298 207M313 314L365 367L313 421L313 314M276 202L287 262L251 226L276 202Z"  horiz-adv-x="572" vert-adv-y="1000"  />

      
      <glyph glyph-name="uni64" unicode="&#x64;" d="M59 158L59 568L122 631L-52 804L147 1002L585 564L585 182L310-92L59 158M144 193L310 28L500 217L500 529L147 882L68 804L242 631L144 533L144 193M301 165L245 221L245 629L399 474L399 264L301 165M157 900L511 545L559 562L157 964L157 900M124 197L124 531L79 551L79 179L124 197M48 812L137 900L137 964L-16 812L48 812M334 303L379 283L379 457L334 436L334 303M132 549L207 624L143 624L88 569L132 549M316 208L371 264L330 284L316 208M293 200L305 262L268 225L293 200Z"  horiz-adv-x="602" vert-adv-y="1000"  />

      
      <glyph glyph-name="uni65" unicode="&#x65;" d="M595 209L293-92L42 158L42 569L303 829L599 531L435 367L595 209M303 709L127 534L127 193L293 28L475 209L413 267L310 163L298 151L228 222L228 280L479 531L303 709M391 464L228 302L228 630L391 464M62 176L107 195L107 531L62 550L62 176M313 727L496 542L559 542L313 791L313 727M69 568L114 549L293 727L293 791L69 568M423 285L489 222L553 222L428 344L423 285M317 198L400 282L405 340L311 246L317 198M266 368L355 456L301 456L266 368M293 183L288 234L256 222L293 183Z"  horiz-adv-x="579" vert-adv-y="1000"  />

      
      <glyph glyph-name="uni66" unicode="&#x66;" d="M313 448L313-59L42-330L42 743L303 1003L518 787L445 715L603 715L339 448L313 448M304 533L399 630L228 630L228 803L320 710L398 787L303 883L127 708L127-125L228-24L228 533L304 533M62-256L107-146L107 705L62 724L62-256M115 723L293 901L293 965L69 742L115 723M313 901L415 798L479 798L313 965L313 901M417 695L293 650L416 650L528 695L417 695M268 661L306 675L287 680L268 661Z"  horiz-adv-x="507" vert-adv-y="1000"  />

      
      <glyph glyph-name="uni67" unicode="&#x67;" d="M19 35L176 190L42 325L42 558L311 829L572 569L572-5L576-7L568-25L564-23L321-266L19 35M392 628L311 709L127 523L127 360L386 100L386 48L326-15L207 94L139 35L321-146L487 19L487 534L393 627L393 225L213 405L213 450L392 628M68 556L113 537L301 727L301 791L68 556M321 727L499 550L543 569L321 791L321 727M62 342L107 360L107 518L62 537L62 342M120 44L199 114L186 173L56 44L120 44M328 402L373 298L373 552L328 451L328 402M354 292L306 403L293 416L249 397L354 292M223 105L314 25L317 71L209 170L225 106L223 105M337 58L334 21L355 41L337 58M366 67L366 86L345 76L366 67Z"  horiz-adv-x="589" vert-adv-y="1000"  />

      
      <glyph glyph-name="uni68" unicode="&#x68;" d="M359 40L227-92L8 128L92 212L92 796L363 1067L363 762L430 829L627 632L627 212L711 128L491-92L359 40M491 28L591 128L542 177L542 597L430 709L278 557L278 862L177 761L177 177L128 128L227 28L327 128L278 177L278 434L441 598L441 177L392 128L491 28M112 215L157 197L157 758L112 778L112 215M421 196L421 519L376 417L376 220L421 196M164 776L285 897L332 1008L120 796L164 776M439 728L554 613L599 631L439 792L439 728M316 623L419 726L419 790L361 732L316 623M108 136L151 179L104 196L44 136L108 136M569 178L609 138L673 138L615 196L569 178M387 151L413 177L371 199L370 198L387 151M331 151L347 198L305 177L331 151Z"  horiz-adv-x="694" vert-adv-y="1000"  />

      
      <glyph glyph-name="uni69" unicode="&#x69;" d="M363 596L363 212L447 128L227-92L8 128L92 212L92 400L10 481L21 492L164 638L40 762L241 963L441 762L318 639L363 596M227 28L327 128L278 177L278 561L242 596L130 482L177 436L177 177L128 128L227 28M241 682L320 761L240 843L159 763L241 682M112 216L157 196L157 417L112 395L112 216M231 613L231 630L184 630L49 492L112 492L231 613M251 859L339 772L403 772L251 925L251 859M78 772L142 772L231 863L231 925L78 772M46 138L110 138L149 177L105 197L46 138M348 199L305 178L343 140L407 140L348 199M251 630L251 615L290 576L335 596L299 630L251 630Z"  horiz-adv-x="430" vert-adv-y="1000"  />

      
      <glyph glyph-name="uni6a" unicode="&#x6a;" d="M419 596L419-17L168-267L2-100L148 48L148 400L66 481L220 638L96 762L297 963L497 762L374 639L419 596M168-147L334 18L334 561L298 596L186 482L233 436L233 13L122-100L168-147M168 53L213 33L213 417L168 398L168 53M377 762L297 843L216 762L297 682L377 762M104 491L167 491L287 613L287 628L238 628L104 491M307 925L307 861L395 772L459 772L307 925M287 861L287 925L136 774L200 774L287 861M40-90L104-90L206 14L162 34L40-90M307 615L345 578L387 599L357 628L307 628L307 615Z"  horiz-adv-x="479" vert-adv-y="1000"  />

      
      <glyph glyph-name="uni6b" unicode="&#x6b;" d="M359 40L227-92L8 128L92 212L92 796L363 1067L363 804L392 834L653 572L459 380L711 128L491-92L359 40M491 28L591 128L339 380L533 572L392 714L278 599L278 862L177 761L177 177L128 128L227 28L327 128L278 177L278 355L449 185L399 135L401 133L392 128L491 28M112 217L157 196L157 758L112 777L112 217M328 610L427 510L278 362L278 560L328 610M439 372L375 372L611 136L675 136L439 372M403 795L403 735L399 735L551 582L615 582L403 795M119 795L165 777L275 887L327 1003L119 795M48 140L110 140L110 138L149 177L106 198L48 140M365 779L317 666L385 735L383 735L383 797L365 779M339 505L348 501L317 429L389 501L339 505M389 153L411 175L373 182L389 153M329 154L337 187L306 177L329 154Z"  horiz-adv-x="679" vert-adv-y="1000"  />

      
      <glyph glyph-name="uni6c" unicode="&#x6c;" d="M8 128L92 212L92 796L363 1067L363 212L447 128L227-92L8 128M227 28L327 128L278 177L278 862L177 761L177 177L128 128L227 28M112 217L157 196L157 762L112 776L112 217M168 780L275 887L274 888L324 1000L119 795L168 780M305 177L347 136L411 136L349 197L305 177M110 138L149 177L106 198L46 138L110 138Z"  horiz-adv-x="430" vert-adv-y="1000"  />

      
      <glyph glyph-name="uni6d" unicode="&#x6d;" d="M623 40L491-92L359 40L227-92L8 128L92 212L92 555L368 829L501 698L632 829L891 570L891 212L975 128L756-92L623 40M491 28L591 128L542 177L542 619L501 578L368 709L283 625L441 467L441 177L392 128L491 28M756 28L855 128L806 177L806 535L632 709L547 624L705 467L705 177L656 128L756 28M227 28L327 128L278 177L278 620L177 520L177 177L128 128L227 28M157 195L157 517L112 536L112 213L157 195M119 554L164 535L359 728L359 792L119 554M641 728L816 552L864 569L641 792L641 728M421 194L421 448L376 427L376 215L421 194M640 221L685 200L685 449L640 432L640 221M379 726L491 616L491 680L379 790L379 726M511 616L621 726L621 790L511 680L511 616M108 136L149 177L103 195L44 136L108 136M832 178L871 140L935 140L875 199L832 178M304 178L333 149L348 198L346 200L304 178M652 152L680 180L637 201L652 152M594 152L611 196L566 180L594 152M386 150L412 176L373 194L386 150Z"  horiz-adv-x="958" vert-adv-y="1000"  />

      
      <glyph glyph-name="uni6e" unicode="&#x6e;" d="M359 40L227-92L8 128L92 212L92 555L368 829L627 570L627 212L711 128L491-92L359 40M491 28L591 128L542 177L542 535L368 709L283 625L441 467L441 177L392 128L491 28M227 28L327 128L278 177L278 620L177 520L177 177L128 128L227 28M112 216L157 196L157 517L112 538L112 216M120 555L164 535L359 728L359 792L120 555M379 726L554 550L601 567L379 790L379 726M421 194L421 449L376 426L376 226L421 194M44 136L108 136L150 178L105 197L44 136M616 195L569 177L611 136L675 136L616 195M387 151L412 176L374 202L387 151M331 151L344 199L305 177L331 151Z"  horiz-adv-x="694" vert-adv-y="1000"  />

      
      <glyph glyph-name="uni6f" unicode="&#x6f;" d="M42 158L42 568L303 829L568 564L568 182L293-92L42 158M293 28L483 217L483 529L303 709L127 533L127 193L293 28M284 165L228 221L228 629L382 474L382 264L284 165M62 176L107 199L107 533L62 547L62 176M311 729L493 546L540 564L311 793L311 729M117 551L291 725L291 789L69 567L117 551M362 282L362 457L317 433L317 301L362 282M297 206L354 264L312 281L297 206M275 201L287 257L256 222L275 201Z"  horiz-adv-x="585" vert-adv-y="1000"  />

      
      <glyph glyph-name="uni70" unicode="&#x70;" d="M313-331L42-59L42 568L303 829L568 564L568 182L313-72L313-331M293 27L483 217L483 529L303 709L127 533L127-24L227-124L227 91L293 27M284 165L228 221L228 629L382 474L382 264L284 165M62-40L107-21L107 528L62 547L62-40M311 729L496 544L543 560L311 793L311 729M68 565L113 547L291 725L291 789L68 565M362 282L362 453L317 435L317 299L362 282M296 206L354 264L309 281L296 206M275 202L285 258L251 226L275 202Z"  horiz-adv-x="585" vert-adv-y="1000"  />

      
      <glyph glyph-name="uni71" unicode="&#x71;" d="M288-88L284-92L33 158L33 568L294 829L559 564L559-60L288-331L288-88M474-25L474 529L294 709L118 533L118 193L284 28L373 116L373-126L474-25M275 165L219 221L219 629L373 474L373 263L275 165M53 177L98 199L98 528L53 547L53 177M303 728L486 544L534 561L303 792L303 728M104 547L283 726L283 790L59 566L104 547M353-148L353 38L308-72L308-257L353-148M353 281L353 452L308 434L308 297L353 281M288 206L345 263L301 279L288 206M266 201L276 255L246 222L266 201Z"  horiz-adv-x="581" vert-adv-y="1000"  />

      
      <glyph glyph-name="uni72" unicode="&#x72;" d="M363 424L363 212L447 128L227-92L8 128L92 212L92 553L368 829L594 603L389 398L363 424M227 28L327 128L278 177L278 619L177 518L177 177L128 128L227 28M389 518L474 603L368 709L283 624L389 518M157 197L157 515L112 533L112 217L157 197M118 551L164 533L357 726L357 790L118 551M377 728L491 614L555 614L377 792L377 728M108 136L150 178L106 198L44 136L108 136M304 179L343 140L407 140L350 196L304 179Z"  horiz-adv-x="562" vert-adv-y="1000"  />

      
      <glyph glyph-name="uni73" unicode="&#x73;" d="M8 209L79 280L53 280L53 560L322 831L610 544L561 495L561 158L310-92L8 209M128 209L310 28L476 193L476 410L224 410L224 612L138 525L138 365L396 365L396 243L319 166L202 283L128 209M426 480L490 544L322 711L258 646L426 480M79 558L129 544L313 730L313 794L79 558M333 728L506 556L570 556L333 792L333 728M73 313L118 355L118 526L73 538L73 313M109 218L188 297L106 279L45 218L109 218M258 430L366 430L312 484L258 430M295 281L215 298L305 208L305 272L295 281M325 261L325 200L372 247L329 264L325 261M334 284L376 267L376 330L334 284Z"  horiz-adv-x="596" vert-adv-y="1000"  />

      
      <glyph glyph-name="uni74" unicode="&#x74;" d="M92 212L92 796L363 1067L363 715L590 715L363 483L363 212L447 128L227-92L8 128L92 212M293 533L390 630L278 630L278 862L177 761L177 177L128 128L227 28L327 128L278 177L278 533L293 533M112 214L157 195L157 760L112 777L112 214M166 778L276 888L320 996L119 795L166 778M309 650L408 650L523 695L354 695L309 650M108 136L149 177L104 196L44 136L108 136M306 176L347 136L411 136L351 196L306 176Z"  horiz-adv-x="507" vert-adv-y="1000"  />

      
      <glyph glyph-name="uni75" unicode="&#x75;" d="M359 696L492 829L711 609L627 525L627 235L754 98L562-91L457 13L449 13L343-92L92 160L92 525L8 609L228 829L359 696M327 609L228 709L128 609L177 560L177 195L343 28L453 137L562 29L635 100L542 200L542 560L591 609L492 709L392 609L441 560L441 271L334 164L278 221L278 560L327 609M157 201L157 538L112 518L112 179L157 201M421 287L421 541L376 519L376 305L421 287M109 618L219 728L219 792L45 618L109 618M503 726L608 620L672 620L503 790L503 726M371 616L483 728L483 792L369 678L369 616L371 616M239 726L348 616L349 616L349 678L239 790L239 726M568 202L652 112L713 112L614 219L568 202M350 208L412 270L368 286L350 208M327 199L340 253L302 225L327 199Z"  horiz-adv-x="703" vert-adv-y="1000"  />

      
      <glyph glyph-name="uni76" unicode="&#x76;" d="M627 182L351-92L92 167L92 525L8 609L228 829L359 696L492 829L711 609L627 525L627 182M351 28L436 112L278 270L278 560L326 608L326 610L228 709L128 609L177 560L177 202L351 28M492 709L392 609L401 605L399 601L441 560L441 117L542 217L542 560L591 609L492 709M157 205L157 538L112 520L112 188L157 205M376 287L421 181L421 540L376 517L376 287M501 792L501 728L610 618L674 618L501 792M108 617L215 724L215 788L47 620L108 620L108 617M235 794L235 730L344 620L349 620L349 678L235 794M481 726L481 790L369 678L369 620L375 620L481 726M351 289L309 266L403 173L356 284L351 289Z"  horiz-adv-x="694" vert-adv-y="1000"  />

      
      <glyph glyph-name="uni77" unicode="&#x77;" d="M92 525L8 609L227 829L359 696L492 829L623 696L756 829L975 609L891 525L891 182L615-92L482 39L351-92L92 167L92 525M482 159L615 28L700 112L542 270L542 560L591 609L492 709L392 609L441 560L441 118L482 159M327 609L227 709L128 609L177 560L177 202L351 28L435 112L278 270L278 560L327 609M806 217L806 560L855 609L756 709L656 609L705 560L705 117L806 217M112 187L157 204L157 535L112 520L112 187M376 295L421 175L421 541L376 521L376 295M640 293L685 185L685 542L640 524L640 293M108 617L217 727L217 791L45 618L108 618L108 617M763 794L763 730L870 622L934 622L763 794M369 678L369 620L375 620L483 728L483 792L369 678M743 724L743 788L631 676L631 620L639 620L743 724M349 620L349 678L237 791L237 727L344 620L349 620M608 620L611 620L611 680L503 790L503 726L608 620M568 271L670 170L615 289L568 271M304 271L401 175L350 290L304 271Z"  horiz-adv-x="958" vert-adv-y="1000"  />

      
      <glyph glyph-name="uni78" unicode="&#x78;" d="M704 121L491-92L359 40L227-92L15 122L200 370L19 616L232 829L363 696L496 829L709 615L523 369L704 121M496 709L396 609L405 604L403 601L451 554L362 418L277 555L331 609L232 709L130 607L306 370L126 129L227 28L327 128L272 183L360 319L447 183L392 128L491 28L593 130L417 370L596 607L496 709M105 135L273 360L217 360L47 133L105 135M503 362L448 362L610 139L670 134L503 362M503 730L611 620L671 624L503 794L503 730M55 624L113 618L222 727L222 791L55 624M242 727L348 620L353 620L353 678L242 791L242 727M373 678L373 620L379 620L483 724L483 788L373 678M370 539L370 468L418 542L371 542L370 539M308 542L350 475L350 539L349 542L308 542M376 175L385 149L411 175L376 175M332 150L340 175L308 175L332 150Z"  horiz-adv-x="698" vert-adv-y="1000"  />

      
      <glyph glyph-name="uni79" unicode="&#x79;" d="M627-6L370-265L185-80L246-18L92 136L92 525L8 609L228 829L359 696L492 829L711 609L627 525L627-6M492 709L392 609L441 560L441 334L278 170L278 560L327 609L228 709L128 609L177 560L177 171L289 59L441 211L441 56L305-80L370-145L542 29L542 560L591 609L492 709M157 179L157 537L112 522L112 154L157 179M501 728L608 620L672 620L501 792L501 728M110 619L220 729L217 729L217 790L49 622L110 622L110 619M376 367L421 353L421 541L376 527L376 367M379 624L481 726L481 790L369 678L369 624L379 624M340 624L349 624L349 678L237 792L237 729L236 729L340 624M394 75L230-70L287-70L416 59L394 75M317 237L412 333L365 349L363 347L317 237M404 96L421 79L421 152L404 96Z"  horiz-adv-x="694" vert-adv-y="1000"  />

      
      <glyph glyph-name="uni7a" unicode="&#x7a;" d="M416-21L40-21L47-4L46-2L49 0L224 396L9 612L229 832L303 758L682 758L491 345L708 128L488-93L416-21M488 27L588 128L488 228L455 195L328 195L549 673L268 673L229 712L129 612L229 511L272 554L386 554L169 64L451 64L488 27M79 19L147 63L344 508L255 418L79 19M286 693L556 693L632 738L305 738L286 693M497 311L497 247L608 136L672 136L497 311M111 622L219 730L219 794L47 622L111 622M477 245L477 309L367 215L447 215L477 245M239 730L268 700L287 745L239 794L239 730Z"  horiz-adv-x="692" vert-adv-y="1000"  />

      
      <glyph glyph-name="uni7b" unicode="&#x7b;" d="M346 529L301 485L346 441L346 1L458-110L307-257L130-80L130 356L-3 489L130 622L130 971L315 1155L460 1010L346 896L346 529M315 1035L215 936L215 587L117 489L215 391L215-45L308-138L337-110L261-34L261 406L181 485L261 564L261 931L340 1010L315 1035M150-61L195-43L195 372L150 353L150-61M150 624L195 605L195 933L150 952L150 624M203 951L303 1051L303 1115L157 970L203 951M34 498L98 498L187 587L142 606L34 498M330-11L288-33L354-98L419-99L330-11M323 1055L358 1020L422 1020L323 1119L323 1055M214 480L278 416L319 440L278 480L214 480Z"  horiz-adv-x="445" vert-adv-y="1000"  />

      
      <glyph glyph-name="uni7c" unicode="&#x7c;" d="M273 1019L273-220L54-220L54 1019L273 1019M74-187L119-142L119 940L74 985L74-187M188-135L188 934L139 934L139-135L188-135M133 954L196 954L241 999L88 999L133 954Z"  horiz-adv-x="327" vert-adv-y="1000"  />

      
      <glyph glyph-name="uni7d" unicode="&#x7d;" d="M123 447L167 491L123 535L123 895L11 1006L162 1153L339 976L339 620L472 487L339 354L339-75L154-259L9-114L123 0L123 447M154-139L254-40L254 389L352 487L254 585L254 941L161 1034L131 1006L208 930L208 570L288 491L208 412L208-35L129-114L154-139M143 2L188-16L188 407L143 427L143 2M143 555L188 572L188 914L143 893L143 555M173 1050L266 957L311 976L173 1114L173 1050M281 585L369 498L433 498L325 605L281 585M45-106L109-106L180-34L135-16L45-106M115 1018L153 1054L153 1116L51 1018L115 1018M150 446L194 426L253 484L188 484L150 446Z"  horiz-adv-x="444" vert-adv-y="1000"  />

      
      <glyph glyph-name="uni7e" unicode="&#x7e;" d="M62 293L63 293L63 340L130 340L130 368L112 368L112 456L130 456L130 487L112 487L112 524L551 524L551 478Q544 491 527 491Q481 491 481 414Q481 338 529 338Q544 338 560 357L560 340L584 340L584 524L958 524L958 498L992 498L992 524L1352 524L1352 0L62 0L62 293M938 340L938 434Q938 488 891 488Q867 488 860 464Q851 488 832 488Q815 488 805 464L805 487L773 487L773 368L754 368L754 340L824 340L824 368L805 368L805 429Q805 452 824 452Q839 452 839 429L839 340L890 340L890 368L871 368L871 429Q871 451 890 451Q905 451 905 429L905 340L938 340M986 267L930 267L930 78L962 78L962 200L965 200L974 78L1032 78L1032 267L1000 267L1000 145L997 145L986 267M480 267L480 78L559 78L570 99L570 161L562 175L562 178L570 192L570 247L559 267L480 267M826 247L826 99L836 78L903 78L915 99L915 247L904 267L836 267L826 247M271 267L271 78L309 78L309 161L320 161L320 78L361 78L361 154L346 175L346 178L361 198L361 247L350 267L271 267M256 293L289 293L289 349Q296 337 313 337Q359 337 359 413Q359 489 311 489Q297 489 280 469L280 487L256 487L256 293M475 412Q475 490 420 490Q366 490 366 412Q366 336 420 336Q475 336 475 412M1184 209L1222 209L1222 247L1212 267L1146 267L1135 247L1135 181L1147 161L1184 152L1184 114L1174 114L1174 142L1135 142L1135 99L1146 78L1211 78L1222 99L1222 171L1209 192L1174 200L1174 233L1184 233L1184 209M256 78L256 147L230 267L189 267L166 147L166 78L203 78L203 114L216 114L216 78L256 78M464 78L464 147L440 267L399 267L376 147L376 78L414 78L414 114L426 114L426 78L464 78M169 293L190 293Q245 299 245 364L245 487L212 487L212 396Q212 370 192 370Q173 370 173 396L173 487L141 487L141 402Q141 338 187 338Q201 338 212 346Q212 323 184 323L169 323L169 293M678 159L704 159L704 192L678 192L678 227L704 227L704 267L640 267L640 78L704 78L704 120L678 120L678 159M786 156L810 156L810 189L786 189L786 227L810 227L810 267L747 267L747 78L786 78L786 156M1064 227L1064 78L1103 78L1103 227L1124 227L1124 267L1043 267L1043 227L1064 227M685 487L670 487L670 464Q659 490 637 490Q594 490 594 447Q594 420 616 411Q593 402 593 378Q594 336 638 336Q660 336 672.50 349Q685 362 685 389L670 389Q667 370 645 370Q625 370 625 384Q625 402 645 402L655 402L655 420L645 420Q625 420 625 437Q625 453 645 453Q662 453 670 433L685 433L685 487M1096 485L1080 485L1080 464Q1068 490 1050 490Q1000 490 1000 412Q1000 337 1051 337Q1087 337 1096 395L1080 395Q1077 372 1055 372Q1032 372 1032 412Q1032 453 1055 453Q1078 453 1080 426L1096 426L1096 485M151 120L129 120L129 267L91 267L91 78L151 78L151 120M625 78L625 267L586 267L586 78L625 78M740 368L726 368L726 433Q726 453 740 453Q746 453 752 447L763 480Q755 487 746 488Q725 488 715 464L715 487L696 487L696 340L740 340L740 368M943 487L943 456L958 456L958 340L992 340L992 487L943 487M286 437Q292 452 307 452Q328 452 328 414Q328 371 306 371Q292 371 286 387L286 437M442 412Q442 372 420 372Q399 372 399 412Q399 453 420 453Q442 453 442 412M553 389Q547 375 533 375Q512 375 512 413Q512 456 534 456Q547 456 553 440L553 389M63 368L63 456L82 456L82 368L63 368M864 114L864 233L875 233L875 114L864 114M63 487L63 524L82 524L82 487L63 487M203 142L203 161L209 211L211 211L216 161L216 142L203 142M414 142L414 161L419 211L422 211L426 161L426 142L414 142M519 161L530 161L530 114L519 114L519 161M519 192L519 233L530 233L530 192L519 192M309 192L309 233L320 233L320 192L309 192Z"  horiz-adv-x="1414" vert-adv-y="1000"  />

      
      <glyph glyph-name="uni201A" unicode="&#x201A;" d="M101-55L194 37L104 128L326 349L542 127L238-177L101-55M234-60L423 128L325 229L224 128L315 37L225-52L234-60M142 138L204 138L204 136L316 247L316 311L142 138M336 246L439 140L501 140L336 310L336 246M202-47L277 27L212 27L140-44L202-44L202-47Z"  horiz-adv-x="513" vert-adv-y="1000"  />

      
      <glyph glyph-name="uni0192" unicode="&#x0192;" d="M542 448L402-70L155-266L0-55L168 77L350 754L667 1004L833 774L756 715L886 715L616 448L542 448M581 533L679 630L503 630L541 767L550 800L614 710L716 791L650 882L423 704L241 27L117-70L172-144L329-20L478 533L581 533M227 49L403 705L364 732L189 79L227 49M376 749L414 722L637 898L652 966L376 749M659 904L737 797L801 783L672 962L659 904M102-57L216 32L179 61L42-48L102-57M624 675L622 674L550 650L695 650L808 695L701 695L624 675Z"  horiz-adv-x="808" vert-adv-y="1000"  />

      
      <glyph glyph-name="uni201E" unicode="&#x201E;" d="M280-55L373 37L370 41L152-177L15-55L108 37L18 128L240 349L370 215L505 349L721 127L417-177L280-55M148-60L337 128L239 229L138 128L229 37L139-52L148-60M413-60L602 128L504 229L403 128L494 37L404-52L413-60M120 138L229 246L229 310L56 138L120 138M517 308L517 244L618 140L680 140L517 308M497 249L497 313L379 196L379 138L385 138L497 249M249 311L249 247L355 138L359 138L359 198L249 311M117-46L192 28L127 28L54-44L117-44L117-46M385-43L459 30L394 30L323-40L385-40L385-43Z"  horiz-adv-x="706" vert-adv-y="1000"  />

      
      <glyph glyph-name="uni2026" unicode="&#x2026;" d="M311 128L533 349L749 127L530-92L311 128M630 128L532 229L431 128L530 28L630 128M351 140L415 140L523 247L523 311L351 140M543 246L648 138L710 138L543 310L543 246M1040 128L1262 349L1478 127L1259-92L1040 128M1359 128L1261 229L1160 128L1259 28L1359 128M1080 140L1144 140L1252 247L1252 311L1080 140M1272 246L1377 138L1439 138L1272 310L1272 246M1769 128L1991 349L2207 127L1988-92L1769 128M2088 128L1990 229L1889 128L1988 28L2088 128M1809 140L1873 140L1981 247L1981 311L1809 140M2001 246L2106 138L2168 138L2001 310L2001 246Z"  horiz-adv-x="2495" vert-adv-y="1000"  />

      
      <glyph glyph-name="uni02C6" unicode="&#x02C6;" d="M373 1218L601 988L299 988L289 1005L279 988L-26 988L204 1218L373 1218M152 1074L225 1147L206 1192L43 1029L152 1074M374 1189L353 1145L427 1071L528 1032L374 1189M225 1198L244 1153L335 1153L356 1198L225 1198M265 1133L239 1133L179 1073L230 1073L265 1133M347 1073L397 1073L338 1133L313 1133L347 1073M296 1031L304 1018L329 1064L297 1121L297 1031L296 1031Z"  horiz-adv-x="645" vert-adv-y="1000"  />

      
      <glyph glyph-name="uni2030" unicode="&#x2030;" d="M280-57L277-65L49-65L310 507L215 412L48 579L48 828L221 1001L395 826L395 692L524 976L754 976L521 457L561 497L705 353L851 497L1025 322L1025 88L845-92L702 50Q699 50 698 51L555-92L387 76L388 160L289-61L280-57M87-29L156 14L562 902L530 941L375 601L371 592L87-29M622 891L578 891L181 20L223 20L622 891M840 78L801 118L801 327L763 290L763 104L845 28L940 123L940 287L851 377L821 347L903 264L903 141L840 78M550 78L511 118L511 327L473 289L473 110L555 28L650 123L650 287L561 377L531 347L613 264L613 141L550 78M210 582L171 622L171 831L133 793L133 614L215 532L310 627L310 791L221 881L191 851L273 768L273 645L210 582M68 597L113 617L113 790L68 806L68 597M73 825L120 808L213 901L213 965L73 825M233 897L325 804L367 825L233 961L233 897M864 456L864 392L953 302Q954 302 956 304L997 321L864 456M844 398L844 462L723 341L751 305L844 398M453 111L453 287L446 290L408 204L408 93L453 111M571 395L659 306L689 339L571 459L571 395M716 84L743 106L743 284L716 318L716 84M498 406L454 308L461 305L551 395L551 459L498 406M580 911L636 911L708 956L544 956L580 911M253 653L253 747L225 724L223 726L223 657L225 656L223 653L223 652L221 652L199 624L191 630L210 610L253 653M557 158L593 159L593 240L557 225L557 158M883 159L883 245L859 237L859 164L883 159M841 147L829 117L840 106L874 140L841 147M550 106L582 138L553 138L535 121L550 106Z"  horiz-adv-x="1036" vert-adv-y="1000"  />

      
      <glyph glyph-name="uni0160" unicode="&#x0160;" d="M42 539L42 732L311 1003L599 716L417 534L572 381L572 158L321-92L19 209L195 385L42 539M139 209L321 28L487 193L487 346L213 619L213 784L127 697L127 574L431 269L329 166L213 283L139 209M414 651L479 716L311 883L247 818L414 651M240 619L499 361L544 380L286 637L240 619M116 714L301 901L301 965L69 731L116 714M321 901L497 726L561 726L321 965L321 901M56 218L120 218L201 299L201 363L56 218M62 558L107 578L107 697L62 714L62 558M221 361L221 303L319 204L319 266L221 361M339 256L339 204L392 258L341 258L339 256M326 1223L328 1218L622 1218L392 988L223 988L-5 1218L297 1218L307 1200L311 1207L308 1213L326 1223M169 1134L57 1184L223 1015L245 1057L169 1134M339 1198L364 1153L434 1153L549 1198L339 1198M74 1198L175 1153L241 1153L271 1198L74 1198M417 1133L365 1133L331 1073L357 1073L417 1133M258 1073L283 1073L248 1133L198 1133L258 1073M319 1182L319 1092L347 1141L322 1187L319 1182Z"  horiz-adv-x="589" vert-adv-y="1000"  />

      
      <glyph glyph-name="uni2039" unicode="&#x2039;" d="M460 659L460 419L375 370L460 321L460 78L110 280L110 459L460 659M375 224L375 273L207 370L375 467L375 514L195 410L195 328L375 224M183 426L378 538L427 618L140 453L183 426M263 360L384 290L428 316L353 360L263 360M130 303L175 328L175 409L130 438L130 303Z"  horiz-adv-x="454" vert-adv-y="1000"  />

      
      <glyph glyph-name="uni0152" unicode="&#x0152;" d="M872 590L671 387L851 209L549-92L421 35L293-92L42 158L42 743L303 1003L430 875L559 1003L855 707L738 590L872 590M735 707L559 883L430 755L303 883L127 708L127 193L293 28L421 155L549 28L731 209L656 282L541 166L484 222L484 408L572 408L668 505L484 505L484 804L656 628L735 707M382 264L285 166L228 222L228 803L382 648L382 264M107 195L107 704L62 723L62 177L107 195M317 302L362 280L362 628L317 603L317 302M571 899L752 718L816 718L571 963L571 899M69 742L114 723L293 901L293 965L69 742M513 525L689 525L798 570L561 570L513 525M663 303L748 220L812 220L663 367L663 303M313 901L423 790L423 854L313 965L313 901M443 796L551 903L551 967L443 860L443 796M555 209L643 297L643 361L572 289L569 286L555 209M298 207L353 263L312 282L298 207M276 202L287 260L251 226L276 202M533 201L543 258L511 223L533 201Z"  horiz-adv-x="847" vert-adv-y="1000"  />

      
      <glyph glyph-name="uni2018" unicode="&#x2018;" d="M461 1088L367 995L458 905L236 684L20 906L324 1210L461 1088M338 905L247 996L337 1085L327 1093L139 905L236 804L338 905M126 920L315 1109L315 1173L62 920L126 920M348 986L285 986L353 918L417 918L348 986M335 1114L355 1096L422 1096L335 1174L335 1114Z"  horiz-adv-x="453" vert-adv-y="1000"  />

      
      <glyph glyph-name="uni2019" unicode="&#x2019;" d="M16 703L109 795L19 886L241 1107L457 885L153 581L16 703M149 697L338 886L240 987L139 886L230 795L140 705L149 697M121 896L231 1005L231 1069L59 898L121 898L121 896M251 1004L352 900L414 900L251 1068L251 1004M118 712L192 785L127 785L53 712L118 712Z"  horiz-adv-x="452" vert-adv-y="1000"  />

      
      <glyph glyph-name="uni201C" unicode="&#x201C;" d="M452 1088L358 995L369 984L595 1210L732 1088L638 995L729 905L507 684L369 826L227 684L11 906L315 1210L452 1088M609 905L518 996L608 1085L598 1093L410 905L507 804L609 905M329 905L238 996L328 1085L318 1093L130 905L227 804L329 905M113 916L303 1106L303 1170L49 916L113 916M391 914L585 1108L585 1172L379 966L379 915L391 915L391 914M619 986L556 986L627 915L691 915L619 986M323 1116L348 1094L415 1094L323 1176L323 1116M605 1114L625 1096L693 1096L605 1175L605 1114M339 986L276 986L347 915L359 915L359 966L339 986Z"  horiz-adv-x="722" vert-adv-y="1000"  />

      
      <glyph glyph-name="uni201D" unicode="&#x201D;" d="M305 703L398 795L382 811L152 581L15 703L108 795L18 886L240 1107L382 960L530 1107L746 885L442 581L305 703M148 697L337 886L239 987L138 886L229 795L139 705L148 697M438 697L627 886L529 987L428 886L519 795L429 705L438 697M120 896L230 1005L230 1069L56 896L120 896M539 1069L539 1005L645 896L707 896L539 1069M519 1004L519 1068L391 941L391 900L414 900L519 1004M351 900L371 900L371 943L250 1068L250 1004L351 900M344 714L409 714L482 786L417 786L344 714M119 714L190 784L125 784L54 714L119 714Z"  horiz-adv-x="732" vert-adv-y="1000"  />

      
      <glyph glyph-name="uni2022" unicode="&#x2022;" d="M92-35L200 279L66 279L290 795L584 795L494 551L660 551L200-90L92-35M494 466L372 466L462 710L345 710L194 364L321 364L228 95L494 466M102 314L171 360L327 719L299 766L102 314M191 50L287 327L224 285L125 0L191 50M345 730L471 730L537 775L317 775L345 730M420 486L508 486L590 531L482 531L420 486Z"  horiz-adv-x="643" vert-adv-y="1000"  />

      
      <glyph glyph-name="uni2013" unicode="&#x2013;" d="M54 323L54 590L729 590L729 323L54 323M644 408L644 505L139 505L139 408L644 408M135 525L652 525L698 570L84 570L135 525M74 354L119 398L119 513L74 553L74 354Z"  horiz-adv-x="758" vert-adv-y="1000"  />

      
      <glyph glyph-name="uni2014" unicode="&#x2014;" d="M54 323L54 590L1012 590L1012 323L54 323M927 408L927 505L139 505L139 408L927 408M136 525L932 525L980 570L86 570L136 525M74 357L119 402L119 513L74 554L74 357Z"  horiz-adv-x="1041" vert-adv-y="1000"  />

      
      <glyph glyph-name="uni02DC" unicode="&#x02DC;" d="M194 1226L297 1178L376 1237L544 1091L354 980L249 1029L171 969L7 1112L194 1226M212 1108L316 1061L399 1104L372 1127L304 1095L203 1136L148 1100L173 1078L212 1108M129 1111L183 1144L183 1196L59 1121L129 1111M384 1203L379 1147L419 1113L488 1113L384 1203M211 1151L287 1119L287 1161L203 1200L211 1151M307 1160L307 1116L359 1142L364 1203L307 1160M509 1095L509 1093L510 1094L509 1095Z"  horiz-adv-x="645" vert-adv-y="1000"  />

      
      <glyph glyph-name="uni2122" unicode="&#x2122;" d="M96.89 513.37L96.89 506.82L98.01 505.70L95.08 502.78L92.17 505.70L93.29 506.82L93.29 513.37L89.74 513.37L93.32 516.97L100.94 516.97L97.33 513.37L96.89 513.37M96.87 514.50L98.21 515.84L93.78 515.84L92.45 514.50L94.42 514.50L94.42 506.36L93.77 505.70L95.08 504.37L96.42 505.70L95.76 506.36L95.76 514.50L96.87 514.50M94.15 506.59L94.15 514.05L93.55 513.46L93.55 506.83L94.15 506.59M93.87 516.11L98.41 516.11L99.97 516.71L93.55 516.71L93.87 516.11M92.05 514.47L93.61 516.04L93.30 516.59L90.68 513.94L92.05 514.47M93.50 505.81L94.05 506.36L93.43 506.59L92.65 505.81L93.50 505.81M96.12 506.37L96.65 505.84L97.51 505.84L96.72 506.62L96.12 506.37M534.33 520.02L481.50 467.16L428.67 520.02L375.85 467.16L288.20 555.25L321.82 588.88L321.82 795.48L432.28 905.19L485.50 852.74L537.93 905.19L641.58 801.49L641.58 588.88L675.20 555.25L587.56 467.16L534.33 520.02M481.50 515.21L521.52 555.25L501.91 574.87L501.91 821.11L485.50 804.69L432.28 857.14L398.26 823.51L461.49 760.25L461.49 574.87L444.68 558.05L445.48 556.85L441.88 555.25L481.50 515.21M587.56 515.21L627.18 555.25L607.57 574.87L607.57 787.48L537.93 857.14L503.91 823.11L567.15 760.25L567.15 574.87L547.54 555.25L587.56 515.21M396.26 821.51L355.84 781.47L355.84 574.87L336.23 555.25L375.85 515.21L415.87 555.25L396.26 574.87L396.26 821.51M329.82 591.29L347.83 582.88L347.83 781.47L329.82 789.08L329.82 591.29M541.13 590.88L559.14 583.28L559.14 753.84L541.13 746.64L541.13 590.88M435.48 592.49L453.49 584.88L453.49 752.64L435.48 745.84L435.48 592.49M427.87 863.95L427.87 889.58L333.43 795.88L351.43 788.28L427.87 863.95M541.53 864.75L612.37 793.48L630.38 801.09L541.53 890.38L541.53 864.75M435.88 890.38L435.88 864.75L481.50 819.91L481.50 845.53L435.88 890.38M489.51 819.91L533.53 863.95L533.53 889.58L489.51 845.53L489.51 819.91M535.13 755.04L536.73 753.44L555.14 760.65L515.92 800.29L535.13 755.04M431.88 753.04L450.29 759.85L409.06 801.49L431.88 753.04M303.41 559.25L329.02 559.25L345.03 575.27L327.42 583.28L303.41 559.25M635.58 583.28L617.57 576.07L633.58 560.05L659.19 560.05L635.58 583.28M441.08 565.66L452.29 576.87L434.28 584.48L433.08 583.28L441.08 565.66M539.13 582.88L545.13 564.06L556.74 575.67L539.13 582.88M427.07 577.27L419.87 562.46L422.27 560.05L435.08 560.05L427.07 577.27M523.52 564.46L528.33 582.88L512.72 574.87L523.52 564.46M413.87 568.46L421.07 583.68L404.66 577.27L413.87 568.46M533.93 571.67L530.73 559.25L538.33 559.25L533.93 571.67Z"  horiz-adv-x="735" vert-adv-y="1000"  />

      
      <glyph glyph-name="uni0161" unicode="&#x0161;" d="M8 209L79 280L53 280L53 560L322 831L610 544L561 495L561 158L310-92L8 209M128 209L310 28L476 193L476 410L224 410L224 612L138 525L138 365L396 365L396 243L319 166L202 283L128 209M426 480L490 544L322 711L258 646L426 480M79 558L129 544L313 730L313 794L79 558M333 728L506 556L570 556L333 792L333 728M73 313L118 355L118 526L73 538L73 313M109 218L188 297L106 279L45 218L109 218M258 430L366 430L312 484L258 430M295 281L215 298L305 208L305 272L295 281M325 261L325 200L372 247L329 264L325 261M334 284L376 267L376 330L334 284M340 1050L342 1045L636 1045L406 815L237 815L9 1045L311 1045L321 1027L325 1034L322 1040L340 1050M183 961L71 1011L237 842L259 884L183 961M353 1025L378 980L448 980L563 1025L353 1025M88 1025L189 980L255 980L285 1025L88 1025M431 960L379 960L345 900L371 900L431 960M272 900L297 900L262 960L212 960L272 900M333 1009L333 919L361 968L336 1014L333 1009Z"  horiz-adv-x="596" vert-adv-y="1000"  />

      
      <glyph glyph-name="uni203A" unicode="&#x203A;" d="M139 79L139 319L223 368L139 417L139 660L489 458L489 279L139 79M224 224L404 327L404 410L224 513L224 465L392 368L224 271L224 224M221 538L416 425L460 452L174 617L221 538M168 313L212 287L335 358L245 358L168 313M159 439L204 462L204 526L159 602L159 439M159 130L204 209L204 268L159 295L159 130Z"  horiz-adv-x="454" vert-adv-y="1000"  />

      
      <glyph glyph-name="uni0153" unicode="&#x0153;" d="M852 209L550-92L421 36L293-92L42 158L42 568L303 829L431 701L560 829L856 531L692 367L852 209M736 531L560 709L431 581L303 709L127 533L127 193L293 28L421 156L550 28L732 209L657 282L542 166L485 222L485 280L736 531M382 264L284 165L228 221L228 629L382 474L382 264M485 630L648 464L485 302L485 630M107 197L107 531L62 547L62 177L107 197M571 726L751 544L815 544L571 790L571 726M67 565L114 548L293 727L293 791L67 565M441 619L551 728L551 792L441 683L441 619M313 727L421 619L421 683L313 791L313 727M317 290L321 299L362 281L362 454L317 429L317 290M667 300L747 222L813 219L685 346L667 300M554 206L646 298L661 338L568 245L554 206M555 454L525 370L610 454L555 454M317 290L312 285L297 206L353 263L313 281L317 290M275 201L287 264L250 227L275 201M532 203L543 231L513 222L532 203Z"  horiz-adv-x="833" vert-adv-y="1000"  />

      
      <glyph glyph-name="uni0178" unicode="&#x0178;" d="M351 1032L266 947L113 1100L267 1254L350 1167L437 1254L588 1099L436 947L351 1032M445 1217L445 1153L487 1110L549 1110L445 1217M218 1113L255 1150L255 1214L154 1113L218 1113M425 1150L425 1214L359 1148L359 1111L386 1111L425 1150M316 1111L339 1111L339 1150L275 1217L275 1153L316 1111M469 1100L437 1134L403 1100L436 1067L469 1100M299 1100L267 1134L233 1100L266 1067L299 1100M88 128L172 212L172 347L43 476L43 699L-41 783L179 1003L310 870L443 1003L662 783L578 699L578 491L443 357L443 212L527 128L307-92L88 128M307 28L407 128L358 177L358 392L387 421L229 579L229 734L278 783L179 883L79 783L128 734L128 511L257 382L257 177L208 128L307 28M493 526L493 734L542 783L443 883L343 783L392 734L392 426L493 526M63 495L108 516L108 716L63 699L63 495M453 901L557 796L621 796L453 965L453 901M0 796L64 796L167 899L167 963L0 796M187 903L291 798L301 798L301 851L187 967L187 903M321 853L321 798L330 798L433 901L433 965L321 853M327 611L372 492L372 716L327 698L327 611M192 217L237 196L237 366L192 347L192 217M254 581L355 480L316 583L300 599L254 581M430 196L382 180L425 138L489 138L430 196M128 140L192 140L229 177L186 198L128 140Z"  horiz-adv-x="694" vert-adv-y="1000"  />

      
      <glyph glyph-name="unia1" unicode="&#xa1;" d="M444 607L370 533L370-61L99-332L99 353L177 431L6 608L225 827L444 607M285-26L285 418L184 318L184-127L285-26M119-255L164-145L164 316L119 333L119-255M324 607L225 707L125 607L222 506L324 607M235 789L235 729L231 729L341 618L405 618L235 789M107 617L219 729L215 729L215 789L46 620L107 620L107 617M126 352L172 334L283 444L194 420L126 352Z"  horiz-adv-x="426" vert-adv-y="1000"  />

      
      <glyph glyph-name="unia2" unicode="&#xa2;" d="M42 272L42 683L194 834L194 979L402 979L402 843L599 645L433 482L595 323L396 125L396-27L194-27L194 121L42 272M311 58L311 160L475 323L400 396L285 280L228 336L228 744L400 568L479 645L317 808L317 894L279 894L279 799L127 648L127 307L279 156L279 58L311 58M62 290L107 312L107 646L62 663L62 290M344 808L498 654L562 654L387 830L344 808M214 826L68 681L114 663L250 798L210 817L214 826M410 414L494 332L558 332L415 472L410 472L410 414M299 322L390 414L390 472L384 472L318 405L318 403L299 322M272 914L323 914L368 959L223 959L272 914M214 7L259 56L259 138L214 119L214 7M259 816L259 899L214 940L214 826L218 835L259 816M313 428L365 481L313 535L313 428M276 316L290 374L255 337L276 316Z"  horiz-adv-x="572" vert-adv-y="1000"  />

      
      <glyph glyph-name="unia3" unicode="&#xa3;" d="M8 128L92 212L92 743L353 1003L649 705L531 590L663 590L396 323L363 323L363 221L741 221L454-65L200-65L8 128M419 20L536 136L319 136L278 177L278 408L363 408L459 505L278 505L278 804L450 628L529 705L353 883L177 708L177 177L128 128L235 20L419 20M112 214L157 195L157 709L112 725L112 214M363 901L546 716L610 716L363 965L363 901M167 726L343 901L343 965L119 742L167 726M337 156L566 156L670 201L355 201L337 156M315 525L482 525L587 568L362 568L315 525M112 140L149 177L104 196L48 140L112 140M319 163L333 198L300 182L319 163Z"  horiz-adv-x="685" vert-adv-y="1000"  />

      
      <glyph glyph-name="uni20AC" unicode="&#x20AC;" d="M595 209L293-92L42 158L42 307L0 307L0 595L42 595L42 743L303 1003L599 705L490 595L522 595L522 307L495 307L595 209M437 409L228 409L228 493L437 493L437 510L228 510L228 799L401 626L479 705L303 883L127 708L127 510L85 510L85 493L127 493L127 409L85 409L85 392L127 392L127 193L293 28L475 209L400 282L284 167L228 222L228 392L437 392L437 409M315 899L498 714L562 714L315 963L315 899M114 723L295 903L295 967L67 740L114 723M262 530L451 530L496 575L309 575L262 530M107 200L107 357L62 318L62 177L107 200M62 591L107 546L107 705L62 722L62 591M408 317L408 302L489 222L554 222L457 317L408 317M310 285L302 213L388 298L388 317L342 317L310 285M452 429L486 448L248 448L248 429L452 429M20 465L65 492L65 516L20 561L20 465M65 390L65 415L20 435L20 345L65 390M107 429L107 448L39 448L77 431L76 429L107 429M280 198L287 262L252 226L280 198M79 530L95 530L50 575L34 575L79 530Z"  horiz-adv-x="567" vert-adv-y="1000"  />

      
      <glyph glyph-name="unia5" unicode="&#xa5;" d="M575 128L355-92L136 128L137 129L116 129L116 445L122 445L91 476L91 699L7 783L227 1003L358 870L491 1003L710 783L626 699L626 491L579 445L604 445L604 129L574 129L575 128M519 241L406 241L406 333L519 333L519 360L406 360L406 392L435 421L277 579L277 734L326 783L227 883L127 783L176 734L176 511L327 360L201 360L201 333L305 333L305 241L201 241L201 214L305 214L305 177L256 128L355 28L455 128L406 177L406 214L519 214L519 241M541 526L541 734L590 783L491 883L391 783L440 734L440 426L541 526M156 516L156 715L111 696L111 496L156 516M46 794L109 794L217 901L215 901L215 963L46 794M505 961L505 897L605 796L669 796L505 961M368 852L368 796L376 796L485 905L485 969L368 852M235 903L341 796L348 796L348 852L235 967L235 903M375 603L420 496L420 715L375 693L375 603M147 425L198 380L279 380L235 425L147 425M305 578L406 477L360 586L351 596L305 578M136 301L181 326L181 369L136 409L136 301M136 164L181 208L181 246L136 270L136 164M561 286L426 286L426 261L525 261L525 262L561 286M161 280L197 261L285 261L285 280L161 280M556 425L445 380L521 380L567 425L556 425M475 136L529 136L429 181L475 136M188 138L238 138L266 166L188 138M345 776L359 734L374 776L345 776Z"  horiz-adv-x="694" vert-adv-y="1000"  />

      
      <glyph glyph-name="unia6" unicode="&#xa6;" d="M242 303L242-220L54-220L54 303L242 303M54 511L54 1019L242 1019L242 511L54 511M74-186L119-143L119 224L74 269L74-186M74 545L119 585L119 940L74 985L74 545M157-135L157 218L139 218L139-135L157-135M157 596L157 934L139 934L139 596L157 596M133 954L163 954L208 999L88 999L133 954M133 238L161 238L204 283L88 283L133 238Z"  horiz-adv-x="275" vert-adv-y="1000"  />

      
      <glyph glyph-name="unia7" unicode="&#xa7;" d="M8 209L162 363L53 473L53 732L322 1003L610 716L453 559L561 452L561 158L310-92L8 209M476 193L476 417L221 672L224 674L224 784L138 697L138 508L390 255L398 249L395 245L395 113L476 193M224 634L395 462L395 276L224 450L224 634M310 28L383 101L202 283L128 209L310 28M425 651L490 716L322 883L258 818L425 651M80 731L123 710L311 900L311 964L80 731M331 902L506 728L570 728L331 966L331 902M279 695L277 695L250 671L488 433L527 449L279 695M73 492L118 510L118 690L73 713L73 492M194 303L185 300L170 343L46 219L110 219L194 303M191 338L201 310L202 311L353 159L332 209L191 338M302 455L253 448L350 350L302 455M334 430L375 343L375 444L334 430M375 157L375 222L357 201L375 157Z"  horiz-adv-x="596" vert-adv-y="1000"  />

      
      <glyph glyph-name="unia8" unicode="&#xa8;" d="M261 1032L176 947L23 1100L177 1254L260 1167L347 1254L498 1099L346 947L261 1032M355 1217L355 1153L397 1110L459 1110L355 1217M128 1113L165 1150L165 1214L64 1113L128 1113M335 1150L335 1214L269 1148L269 1111L296 1111L335 1150M226 1111L249 1111L249 1150L185 1217L185 1153L226 1111M379 1100L347 1134L313 1100L346 1067L379 1100M209 1100L177 1134L143 1100L176 1067L209 1100Z"  horiz-adv-x="491" vert-adv-y="1000"  />

      
      <glyph glyph-name="unia9" unicode="&#xa9;" d="M41 277Q41 334 63 385Q85 436 122.50 473.50Q160 511 211 533Q262 555 319 555Q376 555 427 533Q478 511 515.50 473.50Q553 436 575 385Q597 334 597 277Q597 220 575 169Q553 118 515.50 80.50Q478 43 427 21Q376-1 319-1Q262-1 211 21Q160 43 122.50 80.50Q85 118 63 169Q41 220 41 277M74 276Q74 225 93.50 180Q113 135 146 102Q179 69 224 49.50Q269 30 320 30Q371 30 416 49.50Q461 69 494.50 102Q528 135 547.50 180Q567 225 567 276Q567 327 547.50 372Q528 417 494.50 451Q461 485 416 504.50Q371 524 320 524Q269 524 224 504.50Q179 485 146 451Q113 417 93.50 372Q74 327 74 276M378 346Q352 382 315 382Q280 382 259 353Q238 324 238 273Q238 225 260.50 195Q283 165 316 165Q333 165 349.50 173.50Q366 182 378 196L428 162Q390 100 315 100Q285 100 259.50 113Q234 126 215.50 149.50Q197 173 186.50 204.50Q176 236 176 273Q176 310 185.50 342Q195 374 213 397.50Q231 421 257 434Q283 447 315 447Q393 447 430 380L378 346Z"  horiz-adv-x="635" vert-adv-y="1000"  />

      
      <glyph glyph-name="uniab" unicode="&#xab;" d="M863 659L863 419L778 370L863 321L863 78L513 280L513 459L863 659M778 224L778 273L610 370L778 467L778 514L598 410L598 328L778 224M586 426L781 538L830 618L543 453L586 426M666 360L787 290L831 316L756 360L666 360M533 303L578 328L578 409L533 438L533 303M488 659L488 419L403 370L488 321L488 78L138 280L138 459L488 659M403 224L403 273L235 370L403 467L403 514L223 410L223 328L403 224M211 426L406 538L455 618L168 453L211 426M291 360L412 290L456 316L381 360L291 360M158 303L203 328L203 409L158 438L158 303Z"  horiz-adv-x="927" vert-adv-y="1000"  />

      
      <glyph glyph-name="uniae" unicode="&#xae;" d="M270 524Q228 524 194.50 509Q161 494 137.50 470Q114 446 101.50 415Q89 384 89 353Q89 321 101.50 290Q114 259 137.50 235Q161 211 194.50 196Q228 181 270 181Q309 181 344.50 194Q380 207 406 230.50Q432 254 447.50 285.50Q463 317 463 353Q463 384 448.50 415Q434 446 408.50 470Q383 494 347.50 509Q312 524 270 524M271 142Q222 142 181 159.50Q140 177 110 206Q80 235 63.50 273Q47 311 47 353Q47 396 63.50 434.50Q80 473 110 502Q140 531 181 548Q222 565 271 565Q320 565 362 548.50Q404 532 434.50 503.50Q465 475 482 436.50Q499 398 499 353Q499 311 481.50 273Q464 235 433.50 206Q403 177 361 159.50Q319 142 271 142M246 418L246 366L284 366Q308 366 308 391Q308 418 284 418L246 418M270 319L246 319L246 235L201 235L201 464L283 464Q315 464 334.50 445Q354 426 354 391Q354 368 345 353.50Q336 339 316 326L357 235L309 235L270 319Z"  horiz-adv-x="540" vert-adv-y="1000"  />

      
      <glyph glyph-name="unib4" unicode="&#xb4;" d="M225 988L3 988L192 1218L519 1218L225 988M216 1144L192 1188L59 1026L157 1073L216 1144M210 1198L234 1153L297 1153L425 1198L210 1198M273 1133L232 1133L183 1073L196 1073L273 1133Z"  horiz-adv-x="425" vert-adv-y="1000"  />

      
      <glyph glyph-name="unib5" unicode="&#xb5;" d="M359 696L492 829L711 609L627 525L627 235L754 98L562-91L453 17L343-92L328-77L328-193L92-193L92 525L8 609L228 829L359 696M327 609L228 709L128 609L177 560L177-108L243-108L243 128L343 28L453 137L562 29L635 100L542 200L542 560L591 609L492 709L392 609L441 560L441 271L334 164L278 221L278 560L327 609M112-155L157-110L157 542L112 523L112-155M376 304L421 289L421 542L376 525L376 304M501 792L501 728L609 619L673 619L501 792M49 622L113 622L218 727L218 791L49 622M375 620L481 726L481 790L369 678L369 620L375 620M238 727L344 620L349 620L349 678L238 791L238 727M618 215L570 200L653 110L715 110L618 215M347 205L413 271L365 287L364 286L347 205M325 200L338 262L299 227L325 200M346 600L362 565L377 596L373 600L346 600Z"  horiz-adv-x="703" vert-adv-y="1000"  />

      
      <glyph glyph-name="unib8" unicode="&#xb8;" d="M269-60L356-149L356-289L258-387L164-387L-30-193L114-193L98-171L98 5L269 5L269-60M190-302L244-302L271-272L271-184L183-96L183-142L237-196L237-278L150-278L190-302M130-15L187-76L249-59L249-15L130-15M257-77L203-90L281-166L320-141L257-77M118-161L163-139L163-82L118-32L118-161M41-213L120-258L200-258L138-213L41-213M168-159L128-179L140-191L141-190L217-245L217-204L168-159Z"  horiz-adv-x="383" vert-adv-y="1000"  />

      
      <glyph glyph-name="unibb" unicode="&#xbb;" d="M527 79L527 319L611 368L527 417L527 660L877 458L877 279L527 79M612 224L792 327L792 410L612 513L612 465L780 368L612 271L612 224M609 538L804 425L848 452L562 617L609 538M556 313L600 287L723 358L633 358L556 313M547 439L592 462L592 526L547 602L547 439M547 130L592 209L592 268L547 295L547 130M139 79L139 319L223 368L139 417L139 660L489 458L489 279L139 79M224 224L404 327L404 410L224 513L224 465L392 368L224 271L224 224M221 538L416 425L460 452L174 617L221 538M168 313L212 287L335 358L245 358L168 313M159 439L204 462L204 526L159 602L159 439M159 130L204 209L204 268L159 295L159 130Z"  horiz-adv-x="929" vert-adv-y="1000"  />

      
      <glyph glyph-name="unibf" unicode="&#xbf;" d="M546 609L369 433L438 365L438 232L408 202L589 21L301-266L32 5L32 198L180 347L180 531L108 610L327 829L546 609M117 40L203-47L203 118L353 267L353 328L341 341L265 418L265 312L117 163L117 40M469 21L404 86L237-81L301-146L469 21M426 609L327 709L227 609L324 508L426 609M337 791L337 727L444 619L508 619L337 791M208 618L317 727L317 791L146 620L208 620L208 618M57 195L102 176L235 310L193 332L57 195M285 58L241-50L393 103L393 167L285 58M413 169L413 105L490 28L554 28L413 169M200 352L245 328L245 454L200 507L200 352M52 23L97 40L97 157L52 176L52 23M357 353L365 345L410 364L350 424L296 424L357 353Z"  horiz-adv-x="568" vert-adv-y="1000"  />

      
      <glyph glyph-name="unic0" unicode="&#xc0;" d="M360 40L228-93L8 128L92 212L92 728L368 1002L627 743L627 212L711 128L492-91L360 40M278 429L278 793L177 693L177 177L128 128L227 28L327 128L278 177L278 322L441 322L441 177L392 128L491 28L591 128L542 177L542 708L368 882L283 798L441 640L441 429L278 429M112 214L157 195L157 690L112 709L112 214M119 727L164 708L359 901L359 965L119 727M379 899L556 721L600 742L379 963L379 899M376 509L421 464L421 621L376 602L376 509M106 134L149 177L104 196L42 134L106 134M569 177L609 138L673 138L612 199L569 177M421 195L421 288L376 248L376 215L421 195M357 494L312 449L408 449L363 494L357 494M365 129L413 177L369 197L365 193L365 129M345 138L345 194L305 177L345 138M531 988L309 988L15 1218L342 1218L531 988M228 1133L89 1186L308 1014L324 1058L228 1133M112 1198L231 1153L297 1153L321 1198L112 1198M338 1073L351 1073L301 1133L261 1133L338 1073Z"  horiz-adv-x="694" vert-adv-y="1000"  />

      
      <glyph glyph-name="unic1" unicode="&#xc1;" d="M360 40L228-93L8 128L92 212L92 728L368 1002L627 743L627 212L711 128L492-91L360 40M278 429L278 793L177 693L177 177L128 128L227 28L327 128L278 177L278 322L441 322L441 177L392 128L491 28L591 128L542 177L542 708L368 882L283 798L441 640L441 429L278 429M112 214L157 195L157 690L112 709L112 214M119 727L164 708L359 901L359 965L119 727M379 899L556 721L600 742L379 963L379 899M376 509L421 464L421 621L376 602L376 509M106 134L149 177L104 196L42 134L106 134M569 177L609 138L673 138L612 199L569 177M421 195L421 288L376 248L376 215L421 195M357 494L312 449L408 449L363 494L357 494M365 129L413 177L369 197L365 193L365 129M345 138L345 194L305 177L345 138M401 988L179 988L368 1218L695 1218L401 988M392 1144L368 1188L235 1026L333 1073L392 1144M386 1198L410 1153L473 1153L601 1198L386 1198M449 1133L408 1133L359 1073L372 1073L449 1133Z"  horiz-adv-x="694" vert-adv-y="1000"  />

      
      <glyph glyph-name="unic2" unicode="&#xc2;" d="M360 40L228-93L8 128L92 212L92 728L368 1002L627 743L627 212L711 128L492-91L360 40M278 429L278 793L177 693L177 177L128 128L227 28L327 128L278 177L278 322L441 322L441 177L392 128L491 28L591 128L542 177L542 708L368 882L283 798L441 640L441 429L278 429M112 214L157 195L157 690L112 709L112 214M119 727L164 708L359 901L359 965L119 727M379 899L556 721L600 742L379 963L379 899M376 509L421 464L421 621L376 602L376 509M106 134L149 177L104 196L42 134L106 134M569 177L609 138L673 138L612 199L569 177M421 195L421 288L376 248L376 215L421 195M357 494L312 449L408 449L363 494L357 494M365 129L413 177L369 197L365 193L365 129M345 138L345 194L305 177L345 138M447 1200L675 970L373 970L363 987L353 970L48 970L278 1200L447 1200M226 1056L299 1129L280 1174L117 1011L226 1056M448 1171L427 1127L501 1053L602 1014L448 1171M299 1180L318 1135L409 1135L430 1180L299 1180M339 1115L313 1115L253 1055L304 1055L339 1115M421 1055L471 1055L412 1115L387 1115L421 1055M370 1013L378 1000L403 1046L371 1103L371 1013L370 1013Z"  horiz-adv-x="694" vert-adv-y="1000"  />

      
      <glyph glyph-name="unic3" unicode="&#xc3;" d="M360 40L228-93L8 128L92 212L92 728L368 1002L627 743L627 212L711 128L492-91L360 40M278 429L278 793L177 693L177 177L128 128L227 28L327 128L278 177L278 322L441 322L441 177L392 128L491 28L591 128L542 177L542 708L368 882L283 798L441 640L441 429L278 429M112 214L157 195L157 690L112 709L112 214M119 727L164 708L359 901L359 965L119 727M379 899L556 721L600 742L379 963L379 899M376 509L421 464L421 621L376 602L376 509M106 134L149 177L104 196L42 134L106 134M569 177L609 138L673 138L612 199L569 177M421 195L421 288L376 248L376 215L421 195M357 494L312 449L408 449L363 494L357 494M365 129L413 177L369 197L365 193L365 129M345 138L345 194L305 177L345 138M272 1226L375 1178L454 1237L622 1091L432 980L327 1029L249 969L85 1112L272 1226M290 1108L394 1061L477 1104L450 1127L382 1095L281 1136L226 1100L251 1078L290 1108M207 1111L261 1144L261 1196L137 1121L207 1111M462 1203L457 1147L497 1113L566 1113L462 1203M289 1151L365 1119L365 1161L281 1200L289 1151M385 1160L385 1116L437 1142L442 1203L385 1160M587 1095L587 1093L588 1094L587 1095Z"  horiz-adv-x="694" vert-adv-y="1000"  />

      
      <glyph glyph-name="unic4" unicode="&#xc4;" d="M360 40L228-93L8 128L92 212L92 728L368 1002L627 743L627 212L711 128L492-91L360 40M278 429L278 793L177 693L177 177L128 128L227 28L327 128L278 177L278 322L441 322L441 177L392 128L491 28L591 128L542 177L542 708L368 882L283 798L441 640L441 429L278 429M112 214L157 195L157 690L112 709L112 214M119 727L164 708L359 901L359 965L119 727M379 899L556 721L600 742L379 963L379 899M376 509L421 464L421 621L376 602L376 509M106 134L149 177L104 196L42 134L106 134M569 177L609 138L673 138L612 199L569 177M421 195L421 288L376 248L376 215L421 195M357 494L312 449L408 449L363 494L357 494M365 129L413 177L369 197L365 193L365 129M345 138L345 194L305 177L345 138M367 1032L282 947L129 1100L283 1254L366 1167L453 1254L604 1099L452 947L367 1032M461 1217L461 1153L503 1110L565 1110L461 1217M234 1113L271 1150L271 1214L170 1113L234 1113M441 1150L441 1214L375 1148L375 1111L402 1111L441 1150M332 1111L355 1111L355 1150L291 1217L291 1153L332 1111M485 1100L453 1134L419 1100L452 1067L485 1100M315 1100L283 1134L249 1100L282 1067L315 1100Z"  horiz-adv-x="694" vert-adv-y="1000"  />

      
      <glyph glyph-name="unic5" unicode="&#xc5;" d="M360 40L228-93L8 128L92 212L92 728L368 1002L627 743L627 212L711 128L492-91L360 40M278 429L278 793L177 693L177 177L128 128L227 28L327 128L278 177L278 322L441 322L441 177L392 128L491 28L591 128L542 177L542 708L368 882L283 798L441 640L441 429L278 429M112 214L157 195L157 690L112 709L112 214M119 727L164 708L359 901L359 965L119 727M379 899L556 721L600 742L379 963L379 899M376 509L421 464L421 621L376 602L376 509M106 134L149 177L104 196L42 134L106 134M569 177L609 138L673 138L612 199L569 177M421 195L421 288L376 248L376 215L421 195M357 494L312 449L408 449L363 494L357 494M365 129L413 177L369 197L365 193L365 129M345 138L345 194L305 177L345 138M221 1124Q221 1154 232.50 1180.50Q244 1207 264 1227.50Q284 1248 310.50 1259.50Q337 1271 367 1271Q397 1271 423.50 1259.50Q450 1248 470.50 1227.50Q491 1207 502.50 1180.50Q514 1154 514 1124Q514 1094 502.50 1067.50Q491 1041 470.50 1021Q450 1001 423.50 989.50Q397 978 367 978Q335 978 307.50 990.50Q280 1003 260 1025L252 1033L253 1033Q238 1052 229.50 1075Q221 1098 221 1124M286 1124Q286 1158 309.50 1182Q333 1206 367 1206Q398 1206 421 1185L455 1215Q438 1231 416 1241Q393 1251 367 1251Q341 1251 318 1241Q295 1231 278 1213.50Q261 1196 251 1173Q241 1150 241 1124Q241 1098 251 1075Q257 1059 267 1047L300 1077Q286 1097 286 1124M334 1082Q348 1071 368 1071Q391 1071 406.50 1086Q422 1101 422 1124Q422 1139 415 1151L334 1082Z"  horiz-adv-x="694" vert-adv-y="1000"  />

      
      <glyph glyph-name="unic6" unicode="&#xc6;" d="M932 590L731 387L911 209L609-92L417 98L227-92L8 128L92 212L92 728L368 1002L492 877L619 1003L915 707L798 590L932 590M795 707L619 883L492 757L368 882L283 798L441 640L441 429L278 429L278 793L177 693L177 177L128 128L227 28L327 128L278 177L278 322L441 322L441 193L609 28L791 209L716 282L601 166L544 222L544 408L632 408L728 505L544 505L544 804L571 776L572 776L572 775L716 628L795 707M112 215L157 195L157 693L112 710L112 215M119 727L166 710L359 901L359 965L119 727M631 899L812 718L876 718L631 963L631 899M751 525L857 568L623 568L623 570L578 525L751 525M723 367L723 303L805 222L870 222L723 367M502 859L502 795L611 903L611 967L502 859M482 795L482 859L379 963L379 899L482 795M376 503L421 458L421 621L376 598L376 503M616 209L703 297L703 361L634 291L616 209M44 136L108 136L149 177L104 196L44 136M357 189L350 197L305 178L347 136L390 136L355 188L357 189M376 209L421 200L421 282L376 237L376 209M314 449L402 449L358 493L314 449M593 201L606 259L570 223L593 201Z"  horiz-adv-x="887" vert-adv-y="1000"  />

      
      <glyph glyph-name="unic7" unicode="&#xc7;" d="M313 594L313 315L400 402L595 209L293-92L42 158L42 743L303 1003L599 705L401 506L313 594M401 626L479 705L303 883L127 708L127 193L293 28L475 209L400 282L284 167L228 222L228 799L401 626M62 180L107 198L107 702L62 721L62 180M315 899L496 716L560 716L315 963L315 899M112 721L295 903L295 967L67 740L112 721M407 303L492 220L556 220L407 367L407 303M297 208L387 297L387 361L315 290L297 208M275 203L290 269L249 228L275 203M369-60L456-149L456-289L358-387L264-387L70-193L214-193L198-171L198 5L369 5L369-60M290-302L344-302L371-272L371-184L283-96L283-142L337-196L337-278L250-278L290-302M230-15L287-76L349-59L349-15L230-15M357-77L303-90L381-166L420-141L357-77M218-161L263-139L263-82L218-32L218-161M141-213L220-258L300-258L238-213L141-213M268-159L228-179L240-191L241-190L317-245L317-204L268-159Z"  horiz-adv-x="567" vert-adv-y="1000"  />

      
      <glyph glyph-name="unic8" unicode="&#xc8;" d="M616 590L415 387L595 209L293-92L42 158L42 743L303 1003L586 720L587 720L587 719L599 707L482 590L616 590M400 628L479 707L303 883L127 708L127 193L293 28L475 209L400 282L285 166L228 222L228 408L316 408L412 505L228 505L228 804L400 628M62 177L107 197L107 706L62 727L62 177M311 903L494 720L558 720L311 967L311 903M115 724L291 899L291 963L71 744L115 724M261 525L426 525L537 570L303 570L261 525M409 301L492 220L556 220L409 365L409 301M299 208L389 299L389 363L312 285L299 208M277 201L287 260L252 225L277 201M467 988L245 988L-49 1218L278 1218L467 988M164 1133L25 1186L244 1014L260 1058L164 1133M48 1198L167 1153L233 1153L257 1198L48 1198M274 1073L287 1073L237 1133L197 1133L274 1073Z"  horiz-adv-x="567" vert-adv-y="1000"  />

      
      <glyph glyph-name="unic9" unicode="&#xc9;" d="M616 590L415 387L595 209L293-92L42 158L42 743L303 1003L586 720L587 720L587 719L599 707L482 590L616 590M400 628L479 707L303 883L127 708L127 193L293 28L475 209L400 282L285 166L228 222L228 408L316 408L412 505L228 505L228 804L400 628M62 177L107 197L107 706L62 727L62 177M311 903L494 720L558 720L311 967L311 903M115 724L291 899L291 963L71 744L115 724M261 525L426 525L537 570L303 570L261 525M409 301L492 220L556 220L409 365L409 301M299 208L389 299L389 363L312 285L299 208M277 201L287 260L252 225L277 201M339 988L117 988L306 1218L633 1218L339 988M330 1144L306 1188L173 1026L271 1073L330 1144M324 1198L348 1153L411 1153L539 1198L324 1198M387 1133L346 1133L297 1073L310 1073L387 1133Z"  horiz-adv-x="567" vert-adv-y="1000"  />

      
      <glyph glyph-name="unica" unicode="&#xca;" d="M616 590L415 387L595 209L293-92L42 158L42 743L303 1003L586 720L587 720L587 719L599 707L482 590L616 590M400 628L479 707L303 883L127 708L127 193L293 28L475 209L400 282L285 166L228 222L228 408L316 408L412 505L228 505L228 804L400 628M62 177L107 197L107 706L62 727L62 177M311 903L494 720L558 720L311 967L311 903M115 724L291 899L291 963L71 744L115 724M261 525L426 525L537 570L303 570L261 525M409 301L492 220L556 220L409 365L409 301M299 208L389 299L389 363L312 285L299 208M277 201L287 260L252 225L277 201M389 1218L617 988L315 988L305 1005L295 988L-10 988L220 1218L389 1218M168 1074L241 1147L222 1192L59 1029L168 1074M390 1189L369 1145L443 1071L544 1032L390 1189M241 1198L260 1153L351 1153L372 1198L241 1198M281 1133L255 1133L195 1073L246 1073L281 1133M363 1073L413 1073L354 1133L329 1133L363 1073M312 1031L320 1018L345 1064L313 1121L313 1031L312 1031Z"  horiz-adv-x="567" vert-adv-y="1000"  />

      
      <glyph glyph-name="unicb" unicode="&#xcb;" d="M616 590L415 387L595 209L293-92L42 158L42 743L303 1003L586 720L587 720L587 719L599 707L482 590L616 590M400 628L479 707L303 883L127 708L127 193L293 28L475 209L400 282L285 166L228 222L228 408L316 408L412 505L228 505L228 804L400 628M62 177L107 197L107 706L62 727L62 177M311 903L494 720L558 720L311 967L311 903M115 724L291 899L291 963L71 744L115 724M261 525L426 525L537 570L303 570L261 525M409 301L492 220L556 220L409 365L409 301M299 208L389 299L389 363L312 285L299 208M277 201L287 260L252 225L277 201M301 1032L216 947L63 1100L217 1254L300 1167L387 1254L538 1099L386 947L301 1032M395 1217L395 1153L437 1110L499 1110L395 1217M168 1113L205 1150L205 1214L104 1113L168 1113M375 1150L375 1214L309 1148L309 1111L336 1111L375 1150M266 1111L289 1111L289 1150L225 1217L225 1153L266 1111M419 1100L387 1134L353 1100L386 1067L419 1100M249 1100L217 1134L183 1100L216 1067L249 1100Z"  horiz-adv-x="567" vert-adv-y="1000"  />

      
      <glyph glyph-name="unicc" unicode="&#xcc;" d="M8 128L92 212L92 796L363 1067L363 212L447 128L227-92L8 128M227 28L327 128L278 177L278 862L177 761L177 177L128 128L227 28M112 214L157 198L157 760L112 782L112 214M165 777L282 894L328 1004L123 799L165 777M350 196L304 178L345 138L409 138L350 196M48 140L110 140L110 138L151 179L105 197L48 140M455 988L233 988L-61 1218L266 1218L455 988M152 1133L13 1186L232 1014L248 1058L152 1133M36 1198L155 1153L221 1153L245 1198L36 1198M262 1073L275 1073L225 1133L185 1133L262 1073Z"  horiz-adv-x="430" vert-adv-y="1000"  />

      
      <glyph glyph-name="unicd" unicode="&#xcd;" d="M8 128L92 212L92 796L363 1067L363 212L447 128L227-92L8 128M227 28L327 128L278 177L278 862L177 761L177 177L128 128L227 28M112 214L157 198L157 760L112 782L112 214M165 777L282 894L328 1004L123 799L165 777M350 196L304 178L345 138L409 138L350 196M48 140L110 140L110 138L151 179L105 197L48 140M267 988L45 988L234 1218L561 1218L267 988M258 1144L234 1188L101 1026L199 1073L258 1144M252 1198L276 1153L339 1153L467 1198L252 1198M315 1133L274 1133L225 1073L238 1073L315 1133Z"  horiz-adv-x="430" vert-adv-y="1000"  />

      
      <glyph glyph-name="unice" unicode="&#xce;" d="M8 128L92 212L92 796L363 1067L363 212L447 128L227-92L8 128M227 28L327 128L278 177L278 862L177 761L177 177L128 128L227 28M112 214L157 198L157 760L112 782L112 214M165 777L282 894L328 1004L123 799L165 777M350 196L304 178L345 138L409 138L350 196M48 140L110 140L110 138L151 179L105 197L48 140M327 1218L555 988L253 988L243 1005L233 988L-72 988L158 1218L327 1218M106 1074L179 1147L160 1192L-3 1029L106 1074M328 1189L307 1145L381 1071L482 1032L328 1189M179 1198L198 1153L289 1153L310 1198L179 1198M219 1133L193 1133L133 1073L184 1073L219 1133M301 1073L351 1073L292 1133L267 1133L301 1073M250 1031L258 1018L283 1064L251 1121L251 1031L250 1031Z"  horiz-adv-x="430" vert-adv-y="1000"  />

      
      <glyph glyph-name="unicf" unicode="&#xcf;" d="M8 128L92 212L92 796L363 1067L363 212L447 128L227-92L8 128M227 28L327 128L278 177L278 862L177 761L177 177L128 128L227 28M112 214L157 198L157 760L112 782L112 214M165 777L282 894L328 1004L123 799L165 777M350 196L304 178L345 138L409 138L350 196M48 140L110 140L110 138L151 179L105 197L48 140M233 1032L148 947L-5 1100L149 1254L232 1167L319 1254L470 1099L318 947L233 1032M327 1217L327 1153L369 1110L431 1110L327 1217M100 1113L137 1150L137 1214L36 1113L100 1113M307 1150L307 1214L241 1148L241 1111L268 1111L307 1150M198 1111L221 1111L221 1150L157 1217L157 1153L198 1111M351 1100L319 1134L285 1100L318 1067L351 1100M181 1100L149 1134L115 1100L148 1067L181 1100Z"  horiz-adv-x="430" vert-adv-y="1000"  />

      
      <glyph glyph-name="unid0" unicode="&#xd0;" d="M10 115L96 200L96 341L36 341L36 580L96 580L96 709L8 797L185 974L426 974L631 769L631 138L428-65L186-65L10 115M220 20L393 20L546 173L546 734L391 889L220 889L128 797L181 744L181 495L121 495L121 426L181 426L181 165L129 113L220 20M354 495L282 495L282 829L445 665L445 239L282 76L282 426L354 426L354 495M390 280L425 263L425 645L390 622L390 280M411 896L559 749L607 764L430 942L411 896M222 909L395 909L414 954L203 954L222 909M161 184L161 396L116 351L116 205L161 184M116 571L161 526L161 725L116 707L116 571M109 806L204 901L185 946L45 806L109 806M56 373L101 418L101 502L56 547L56 373M365 251L318 140L421 243L378 264L365 251M109 122L153 165L110 186L45 122L109 122M316 515L370 515L370 560L363 560L316 515M71 560L116 515L144 515L99 560L71 560Z"  horiz-adv-x="648" vert-adv-y="1000"  />

      
      </font>
</defs>
</svg>
